<svg width="503" height="57" viewBox="0 0 503 57" fill="none" xmlns="http://www.w3.org/2000/svg">
<path fill-rule="evenodd" clip-rule="evenodd" d="M486.217 5.54584C488.12 5.54584 488.383 5.94594 488.192 7.27766C488.003 8.61224 487.149 10.8213 486.768 12.5359C486.382 14.2506 486.957 14.4421 485.239 14.4421C483.524 14.4421 464.755 14.5164 463.231 14.5164C461.708 14.5164 461.133 14.705 460.942 15.8481C460.753 16.9912 461.708 17.1827 463.034 17.5628C464.369 17.9429 478.281 20.0404 481.52 20.8006C484.759 21.5608 488.381 24.8015 487.806 29.3739C487.237 33.9464 487.046 44.0429 475.803 44.0429H438.268C436.17 44.0429 435.504 44.1372 435.79 42.8998C436.181 41.2194 436.645 38.233 436.839 37.1842C437.028 36.1354 437.788 35.5667 438.743 35.5667C439.692 35.5667 457.703 35.4724 459.415 35.4724C461.128 35.4724 462.463 35.1866 462.937 33.4691C463.417 31.7544 460.845 31.2801 459.89 31.0915C458.941 30.9029 445.697 28.8024 442.453 27.8536C439.214 26.8991 437.028 23.4698 437.596 19.8518C438.165 16.2339 438.457 13.6591 439.594 11.8501C440.738 10.0411 444.071 5.56298 450.554 5.56298C457.034 5.56584 484.313 5.54584 486.217 5.54584ZM387.77 8.04068C387.993 6.80612 387.77 5.37153 390.248 5.37153C393.295 5.37153 430.45 5.56298 432.165 5.56298C433.886 5.56298 434.455 5.37153 434.075 7.27766C433.689 9.18379 433.689 10.5155 433.309 12.4216C432.929 14.3278 432.929 14.5164 431.405 14.5164H411.964C410.249 14.5164 409.397 14.8022 409.106 15.7538C408.82 16.7054 408.631 18.04 408.443 19.0888C408.254 20.1376 408.728 20.9949 409.683 20.9949H427.023C428.355 20.9949 428.927 20.995 428.641 22.6125C428.355 24.2328 428.066 26.0418 427.875 27.1849C427.686 28.328 427.589 28.5166 426.445 28.6138C425.308 28.7081 409.869 28.6138 409.009 28.6138C408.154 28.6138 406.819 28.6138 406.536 29.854C406.253 31.0943 405.867 33.0919 405.77 33.9521C405.676 34.8066 406.344 35.5696 407.293 35.5696H427.209C428.449 35.5696 429.112 36.1383 428.827 37.3786C428.541 38.6188 427.777 42.2396 427.586 43.1884C427.397 44.1429 427.397 44.3315 426.062 44.4287C424.727 44.5258 385.283 44.2401 383.759 44.2401C382.236 44.2401 381.281 44.3344 381.667 42.0453C382.053 39.7591 387.418 9.95253 387.77 8.04068ZM369.475 26.3304C369.475 26.3304 375.959 39.8562 376.908 41.7595C377.862 43.6628 378.051 44.0486 376.719 44.0486H358.43C357.287 44.0486 356.332 43.86 355.383 42.1396C354.428 40.4249 348.523 25.6617 347.568 25.6617C346.619 25.6617 344.498 40.2306 343.949 42.5225C343.503 44.3658 342.045 44.0114 340.516 44.0114L323.131 43.9943C321.227 43.9943 321.89 42.2796 321.89 42.2796C321.89 42.2796 327.418 8.94086 327.607 7.03473C327.796 5.1286 328.373 5.32007 329.322 5.32007C330.277 5.32007 368.198 5.1286 370.865 5.32007C373.535 5.50869 381.55 6.65751 380.009 13.8934C378.105 22.8468 372.465 23.4384 370.673 23.9899C369.467 24.3586 369.004 24.5129 368.97 24.9901C368.932 25.4702 369.475 26.3304 369.475 26.3304ZM348.757 15.8024C348.563 17.137 348.183 18.0886 347.991 19.2317C347.8 20.3748 348.371 20.7549 349.515 20.9464C350.658 21.1378 352.753 20.9464 354.851 20.9464C356.944 20.9464 358.279 19.9947 358.659 18.0886C359.045 16.1825 358.47 14.6593 357.135 14.6593C355.806 14.6593 352.562 14.2763 351.038 14.2763C349.515 14.2763 348.946 14.4707 348.757 15.8024ZM299.402 5.13433H317.314C319.412 5.13433 320.172 5.32579 319.792 7.22906C319.412 9.13234 314.455 39.9991 314.264 41.7109C314.072 43.4227 314.264 43.8028 312.74 43.8028H293.685C291.97 43.8028 291.587 43.2341 291.781 40.9451C291.97 38.656 297.113 8.7494 297.304 7.22621C297.498 5.70587 297.687 5.13433 299.402 5.13433ZM243.33 4.99144H289.638C291.73 4.99144 293.256 4.99144 292.876 6.89757C292.496 8.8037 292.11 10.8984 291.922 12.4216C291.733 13.9477 291.541 13.9477 290.018 13.9477H280.107C278.584 13.9477 277.629 14.5193 277.438 15.851C277.249 17.1856 273.244 39.0904 273.055 40.9993C272.867 42.9026 272.675 43.6628 270.963 43.8571C269.248 44.0457 254.381 43.8571 252.86 43.8571C251.337 43.8571 250.573 43.0912 250.765 41.188C250.954 39.279 254.578 17.7542 254.958 15.8481C255.338 13.9448 254.384 14.1335 253.054 13.9448C251.72 13.7534 244.287 13.7534 242.572 13.7534C240.857 13.7534 240.477 13.3733 240.666 12.0387C240.854 10.7041 241.429 7.2748 241.618 5.94307C241.806 4.61135 241.426 4.99144 243.33 4.99144ZM165.396 10.707C166.348 8.80084 168.443 5.94592 175.303 2.70521C182.161 -0.532645 194.358 0.0389135 200.075 0.0389135C205.792 0.0389135 215.319 -0.152551 222.752 4.03694C233.042 10.5155 230.564 20.2291 228.469 32.4232C226.373 44.6144 223.703 45.9461 220.085 50.33C216.466 54.7109 207.699 57 189.787 57C171.873 57 164.824 53.3764 161.202 48.2381C157.583 43.0912 158.535 40.0449 158.535 36.807C158.535 33.5692 160.822 24.0413 161.202 22.1381C161.582 20.2319 161.966 19.6604 164.061 19.6604C166.156 19.6604 186.546 19.6604 188.833 19.8518C191.119 20.0404 190.928 20.0405 190.548 22.1381C190.165 24.2328 188.452 35.2838 188.069 37.9472C187.689 40.6164 188.833 43.6628 191.688 43.8571C194.547 44.0457 196.642 41.188 197.217 38.1416C197.791 35.0952 200.075 22.7096 200.647 18.5173C201.218 14.3249 197.217 13.3733 194.93 13.3733C192.643 13.3733 168.823 13.1818 166.536 13.1818C164.249 13.1818 164.444 12.6131 165.396 10.707ZM139.861 43.0912H101.563C96.2257 43.0912 89.5568 39.279 90.5116 30.3256C91.4634 21.375 92.6068 17.7542 93.7502 15.0851C94.8936 12.4188 97.7521 4.98858 105.564 4.98858C113.377 4.98858 140.435 4.60849 143.485 4.60849C146.535 4.60849 148.439 4.6085 148.059 6.13169C147.679 7.65488 147.296 9.75247 147.107 11.2757C146.918 12.7989 146.727 13.3704 145.203 13.3704H121.003C118.908 13.3704 116.049 14.1334 115.478 16.7997C114.906 19.4689 113.382 27.8507 112.999 30.3227C112.619 32.8004 113.763 33.9464 115.286 34.135C116.81 34.3236 117.19 34.3236 118.525 34.3236C119.86 34.3236 120.24 34.8923 120.812 31.8459C121.383 28.7995 122.527 23.4669 122.907 21.7494C123.29 20.0347 123.67 19.8461 125.002 19.8461H142.914C145.2 19.8461 145.772 19.8461 145.392 21.7494C145.012 23.6555 142.342 38.896 142.153 40.4192C141.959 41.9481 141.767 43.0912 139.861 43.0912ZM67.6407 4.42275H85.5549C87.6531 4.42275 88.4134 4.61134 88.0304 6.51748C87.6502 8.42361 82.6964 39.2818 82.5049 40.9993C82.3134 42.714 82.5049 43.0912 80.9813 43.0912H61.9237C60.2057 43.0912 59.8284 42.5225 60.0171 40.2335C60.2057 37.9444 65.351 8.04067 65.5426 6.51462C65.7369 4.99143 65.9285 4.42275 67.6407 4.42275ZM2.09242 42.714H41.7284C51.4444 42.714 55.1919 38.3216 56.0209 31.8516C56.9728 24.4243 49.7322 23.6613 49.7322 22.5182C49.7322 21.5665 56.2124 21.5665 58.119 12.6131C59.6569 5.37723 51.6388 4.22841 48.9718 4.0398C46.302 3.85118 8.38398 4.0398 7.4321 4.0398C6.48022 4.0398 5.90566 3.85118 5.717 5.75446C5.52548 7.66059 0 40.9993 0 40.9993C0 40.9993 0.188662 42.714 2.09242 42.714ZM24.1972 29.1853C24.3859 27.8536 25.1491 27.2792 26.2925 27.2792H32.0095C33.5331 27.2792 34.868 29.1853 34.4878 30.7114C34.1076 32.2346 32.7727 34.1378 30.8661 34.1378C28.9595 34.1378 27.0557 34.3265 25.5293 34.3265C24.0057 34.3265 23.8142 33.7577 23.8142 32.9919C23.8142 32.2374 24.0057 30.517 24.1972 29.1853ZM26.5869 14.8479C26.7756 13.5133 27.5388 12.9417 28.6822 12.9417H34.3992C35.9228 12.9417 37.2577 14.8479 36.8747 16.3711C36.4945 17.8971 35.1596 19.8004 33.2529 19.8004C31.3463 19.8004 29.4426 19.989 27.919 19.989C26.3954 19.989 26.2039 19.4175 26.2039 18.6544C26.2067 17.8971 26.3983 16.1825 26.5869 14.8479ZM491.459 10.1897C491.459 7.19192 493.9 4.74853 496.93 4.74853C499.946 4.74853 502.373 7.19192 502.373 10.1897C502.373 13.219 499.943 15.6624 496.93 15.6624C496.211 15.6639 495.499 15.5233 494.834 15.2488C494.169 14.9743 493.566 14.5712 493.057 14.0626C492.549 13.5541 492.146 12.9502 491.872 12.2856C491.597 11.6209 491.457 10.9087 491.459 10.1897ZM501.713 10.1897C501.713 7.54914 499.569 5.4058 496.927 5.4058C495.654 5.4058 494.432 5.91164 493.532 6.81201C492.631 7.71239 492.125 8.93354 492.125 10.2069C492.125 11.4802 492.631 12.7014 493.532 13.6017C494.432 14.5021 495.654 15.0079 496.927 15.0079C499.569 15.0079 501.713 12.8617 501.713 10.1897ZM499.643 13.2504H498.76L497.013 10.4355H495.644V13.2504H494.901V7.14904H497.559C498.074 7.14904 498.585 7.17763 499.046 7.44912C499.503 7.70632 499.732 8.24644 499.732 8.76084C499.732 9.9611 498.888 10.4041 497.799 10.4326L499.643 13.2504ZM496.785 9.84964C497.645 9.84964 498.974 9.99254 498.974 8.74941C498.974 7.80635 498.142 7.69203 497.388 7.69203H495.647V9.84964H496.785Z" fill="white"/>
</svg>
