<svg width="370" height="65" viewBox="0 0 370 65" fill="none" xmlns="http://www.w3.org/2000/svg">
<path d="M74.3034 1.24046H118.712V14.2653H90.4294V25.4294H116.479V38.5782H90.4294V50.7347H118.712V63.7595H74.3034V1.24046ZM174.036 43.416C174.036 48.3779 171.307 51.1069 163.368 51.1069C155.429 51.1069 152.824 48.3779 152.824 43.416V1.24046H136.698V45.2767C136.698 55.0763 142.653 65 163.368 65C184.208 65 190.162 55.2004 190.162 45.2767V1.24046H174.036V43.416ZM283.569 63.7595H299.695V1.24046H283.569V63.7595ZM354.647 32.8721V50.4866C351.794 50.9828 348.569 51.355 344.971 51.355C336.66 51.355 335.172 48.5019 335.172 43.1679V21.584C335.172 15.7538 337.901 13.8931 344.847 13.8931C351.422 13.8931 358.616 14.6374 366.431 15.7538L367.92 2.23283C359.981 0.620233 352.538 0.124049 345.344 0.124049C326.985 0.124049 319.294 6.32634 319.294 19.5992V45.5248C319.294 58.0534 326.24 65 344.971 65C353.282 65 362.214 63.8836 369.781 61.7748V32.8721H354.647ZM254.17 42.7958L266.823 63.7595H248.712L238.664 46.021H226.384V63.7595H210.258V1.24046H239.781C256.651 1.24046 261.985 7.81489 261.985 19.2271V28.0343C262.109 35.105 260.124 39.1985 254.17 42.7958ZM246.479 19.9714C246.479 15.8779 244.494 14.1412 239.781 14.1412H226.384V33.3683H239.408C244.618 33.3683 246.479 31.5076 246.479 27.2901V19.9714ZM9.92366 44.9046C4.46565 44.9046 0 49.3702 0 54.9523C0 60.5344 4.46565 65 9.92366 65C15.3817 65 19.8473 60.5344 19.8473 54.9523C19.8473 49.3702 15.3817 44.9046 9.92366 44.9046ZM9.92366 22.4523C4.46565 22.4523 0 26.9179 0 32.5C0 38.0821 4.46565 42.5477 9.92366 42.5477C15.3817 42.5477 19.8473 38.0821 19.8473 32.5C19.8473 26.9179 15.3817 22.4523 9.92366 22.4523ZM9.92366 0C4.46565 0 0 4.46565 0 10.0477C0 15.6298 4.46565 20.0954 9.92366 20.0954C15.3817 20.0954 19.8473 15.6298 19.8473 10.0477C19.8473 4.46565 15.3817 0 9.92366 0ZM59.0458 1.24046H40.9351L22.5763 32.5L40.9351 63.7595H59.0458L40.1908 32.5L59.0458 1.24046Z" fill="white"/>
</svg>
