<svg width="413" height="120" viewBox="0 0 413 120" fill="none" xmlns="http://www.w3.org/2000/svg">
<path d="M212.044 13.0371C212.044 13.0371 175.809 -6.97099 145.282 2.58614C143.7 2.79241 142.325 3.68624 141.569 5.06137C139.781 7.5366 138.2 9.18674 138.956 11.1119C139.712 13.0371 144.525 13.9309 148.651 12.7621C148.651 12.7621 150.576 11.5932 148.238 10.6994C147.069 10.2181 145.9 9.87431 144.594 9.66804C144.594 9.66804 143.288 9.2555 144.594 8.77421C145.9 8.29291 159.789 4.23629 184.06 11.2494C208.331 18.2626 240.784 38.9582 239.271 59.4476C237.69 79.937 205.65 79.937 205.65 79.937C200.424 79.8682 195.267 79.2494 190.179 78.1493C190.179 71.4112 190.179 60.0664 190.454 53.122C198.224 53.6721 214.45 55.0472 216.513 58.8975C216.513 58.8975 217.544 59.9289 214.175 61.579C211.7 63.0229 209.5 63.5042 211.7 64.6731C211.7 64.6731 214.932 66.5982 216.719 66.117C218.507 65.5669 223.801 63.7792 224.489 58.3475C225.108 52.9158 218.576 47.4152 209.156 45.4213C201.799 43.9774 197.811 43.2211 191.073 43.3586C191.211 37.3081 190.523 29.6761 189.286 27.7509C187.635 25.2757 185.779 22.1817 184.404 25.5507C182.96 28.6448 181.791 35.1079 181.31 43.9774C170.859 45.4213 159.377 49.4092 155.939 53.6721C153.601 56.216 153.601 60.1352 155.939 62.6791C156.214 63.0917 163.433 74.299 179.522 81.9997C179.66 84.9562 180.141 88.1877 181.31 89.9754C183.785 93.8257 188.254 91.2818 189.079 90.5942C189.629 90.1817 189.973 88.944 190.111 86.0563C201.387 89.2878 213.281 89.4941 224.695 86.6751C246.216 80.8996 249.585 67.6983 250.341 59.8601C251.304 52.0907 246.078 31.395 212.044 13.0371ZM179.797 74.9178C171.478 71.9612 164.121 66.942 158.276 60.3414C158.276 60.3414 155.939 57.7287 159.445 56.3536C162.677 55.0472 169.346 53.2595 181.241 52.7095C181.035 56.3536 180.691 64.123 179.797 74.9178Z" fill="white"/>
<path d="M267.189 38.615C275.852 35.9335 284.309 27.7515 284.584 21.0821C284.859 14.344 277.365 14.2753 277.365 14.2753H277.227C276.058 10.0124 268.22 10.4249 268.22 10.4249C252.2 11.3187 246.699 22.1822 245.943 25.1388C245.049 28.4391 246.012 31.9456 248.556 34.2834C247.868 35.5897 247.868 37.1024 248.418 38.4087C248.693 39.1651 250.068 41.6403 251.65 41.5028C252.819 41.3653 253.575 40.7464 255.019 38.2712C257.907 39.6463 261.757 40.2651 267.189 38.615ZM274.821 19.6383C280.596 18.8819 278.327 24.3137 278.327 24.3137C273.652 33.1833 263.613 33.3208 258.113 32.1519C261.757 26.7202 269.801 20.2571 274.821 19.6383ZM251.581 28.5078C250.962 27.339 251.031 25.8263 252.75 23.2136C254.881 20.0508 258.388 18.1256 262.169 18.0569C258.044 20.9446 254.469 24.4512 251.581 28.5078Z" fill="white"/>
<path d="M263.2 67.835C263.2 67.835 263.063 54.7025 262.788 51.9523C262.788 50.0271 262.1 48.1707 260.863 46.658C260.106 45.4892 258.937 43.839 256.875 45.4892C254.812 47.1393 254.4 58.0028 253.918 66.7349C253.368 75.5357 253.781 80.8987 254.812 82.4801C255.843 84.0615 259.969 84.8178 261.756 83.3739C263.544 81.93 263.063 69.2101 263.063 69.2101V67.7662L263.2 67.835Z" fill="white"/>
<path d="M306.928 47.9679C304.247 44.7364 288.777 44.8739 288.777 44.8739C283.07 45.1489 269.8 47.2116 268.012 52.9871C266.225 58.7627 267.6 60.7566 267.6 60.7566C269.181 63.7131 280.251 63.8506 283.345 64.1257C286.439 64.4007 294.415 65.7071 297.303 67.2197C300.122 68.8011 298.059 70.9325 298.059 70.9325C295.377 74.7829 280.388 75.1954 280.388 75.1954C280.388 75.1954 275.094 75.0579 273.65 74.0266C272.207 72.9952 271.863 71.9639 273.375 70.1762C274.957 68.3885 278.945 70.4512 278.945 70.4512C281.214 71.9639 283.826 72.8577 286.577 73.064C290.977 73.339 294.209 71.7576 294.346 70.245C294.484 68.7323 290.633 67.1509 290.633 67.1509C277.638 63.1631 272.207 66.1196 272.207 66.1196C264.987 70.52 270.144 76.5705 270.144 76.5705C281.489 89.3592 299.64 81.7273 301.84 80.0771C304.041 78.427 304.797 76.433 305.072 71.4138C305.347 66.3946 303.147 63.9194 303.147 63.9194C299.503 59.1752 288.983 58.9002 286.027 58.6252C283.07 58.3501 277.157 57.4563 275.576 57.1813C275.163 57.1813 274.819 56.7687 274.819 56.3562C274.819 56.0812 274.957 55.8749 275.163 55.7374C277.088 54.2935 291.252 53.5372 298.884 53.2622L303.147 52.8496C304.935 52.7121 306.447 51.4745 306.86 49.7556C307.135 49.2743 307.135 48.5867 306.928 47.9679Z" fill="white"/>
<path d="M329.825 40.5432C329.068 40.1307 328.175 40.4057 327.762 41.162C327.693 41.2307 327.693 41.3683 327.625 41.437C327.35 42.6059 327.35 43.7747 327.625 44.9436C329.756 52.5068 331.269 60.2075 332.163 68.0457C332.163 68.0457 332.3 70.5209 331.888 70.7272C331.612 70.8647 331.337 70.7959 331.131 70.5897C330.719 70.4522 326.25 62.6139 326.25 62.6139L325.493 61.1701C320.474 52.6443 317.655 49.8253 317.655 49.8253C316.899 49.2065 315.042 47.2125 312.636 49.6878C310.161 52.163 308.235 60.5513 307.342 68.252C306.448 76.0214 306.791 80.4906 307.96 82.4158C308.992 84.2034 311.261 84.891 313.048 83.8597C313.255 83.7221 313.461 83.5846 313.598 83.4471C315.661 81.8657 315.661 71.5523 316.211 66.3268C316.761 61.1013 317.105 61.9264 317.105 61.9264C317.655 61.9264 319.786 66.8081 319.786 66.8081C319.786 66.8081 325.837 79.9405 329.687 82.0032C333.538 84.0659 337.044 80.9719 338.351 78.1529C339.657 75.3339 342.063 65.6392 339.244 54.8445C336.425 43.981 329.825 40.5432 329.825 40.5432Z" fill="white"/>
<path d="M370.458 78.9038C371.008 77.1161 369.152 74.6409 367.502 74.1596C366.058 73.747 353.819 75.741 352.306 75.9473C350.725 76.2223 351.55 74.9159 351.55 74.9159L353.613 68.7278C353.613 68.7278 365.095 68.5903 366.745 68.3153C367.502 68.3153 368.189 67.7653 368.395 67.0089C368.533 65.8401 368.602 64.6712 368.533 63.5024C368.602 62.6773 367.983 61.921 367.089 61.8522C367.02 61.8522 367.02 61.8522 366.952 61.8522C363.445 61.5772 360.007 61.5084 356.501 61.7147L358.082 56.833H358.838C364.27 56.9705 369.702 56.558 375.065 55.6641C377.402 55.1141 376.234 52.8451 376.234 52.8451C373.415 46.9321 370.183 47.2759 370.183 47.2759C361.726 47.0008 353.2 47.7572 344.881 49.4761C343.299 50.0949 343.437 51.2637 345.293 53.6015C346.668 55.0453 348.594 55.9392 350.588 56.0767L347.494 61.9897C346.325 61.921 345.225 62.2648 344.262 62.8836C342.818 64.3274 344.537 68.7966 344.537 68.7966C344.537 68.7966 343.918 70.103 343.093 72.1657C342.337 74.2283 340.274 77.7349 342.956 83.0979C345.637 88.5297 349.9 88.2546 349.9 88.2546C357.738 88.4609 369.702 81.654 370.458 78.9038Z" fill="white"/>
<path d="M408.617 52.0227C406.555 50.3725 403.598 50.235 401.398 51.7477C394.66 55.2542 386.203 65.7052 381.527 71.7557C380.908 67.3553 384.002 61.8548 384.002 61.8548L384.759 60.5485C388.472 54.3604 389.022 53.7416 389.778 52.0227C390.534 50.3038 390.947 46.866 390.191 46.4534C389.434 46.0409 388.128 47.2097 388.128 47.2097C377.058 56.4918 375.202 67.2178 375.202 67.2178C374.033 72.7871 374.927 76.775 376.508 79.594C370.182 92.7264 367.845 105.24 367.845 110.122C367.982 114.247 370.32 117.96 374.033 119.816C376.233 120.71 376.646 118.029 376.646 118.029C378.364 107.234 381.527 96.6455 386.065 86.6759C397.135 89.6324 406.28 78.0126 409.167 73.6809C411.23 70.1056 412.33 66.049 412.399 61.9236C412.605 61.3735 412.468 54.8417 408.617 52.0227ZM400.779 73.4059C397.822 75.6061 394.385 76.9125 390.741 77.1187C394.247 70.9307 398.579 65.2239 403.529 60.0672C407.173 56.3543 407.38 59.7922 407.38 59.7922C407.998 66.6678 402.979 71.6182 400.779 73.4059Z" fill="white"/>
<path d="M15.5389 64.6059C11.8261 63.4371 8.31951 62.4057 8.31951 60.068V59.9305C8.31951 58.1428 9.96966 56.8365 12.8574 56.8365C15.4702 57.0427 18.0141 57.7303 20.3519 59.0367C21.727 59.8618 23.5147 59.3805 24.3397 57.9366C24.6148 57.4553 24.7523 56.974 24.7523 56.4239C24.6835 55.2551 23.9959 54.155 22.9646 53.6049C19.8706 51.9548 16.4328 51.0609 12.9262 50.9922C6.60061 50.9922 1.58139 54.705 1.58139 60.8244V60.9619C1.58139 67.0124 6.87563 69.0751 11.6198 70.3815C15.3327 71.5503 18.7017 72.4442 18.7017 74.9194V75.0569C18.7017 77.1196 16.914 78.5635 13.6825 78.5635C10.3822 78.4947 7.21941 77.3946 4.53792 75.4694C4.05662 75.1944 3.50657 75.0569 2.95652 75.0569C1.37513 75.0569 0 76.2945 0 77.9447C0 78.0134 0 78.0134 0 78.0822C0 79.1135 0.550051 80.0761 1.44388 80.6949C5.01921 83.1701 9.21334 84.5453 13.545 84.5453C20.2831 84.5453 25.4398 81.1762 25.4398 74.5068V74.3693C25.4398 68.25 20.1456 66.0498 15.5389 64.6059Z" fill="white"/>
<path d="M49.7114 50.8538C45.586 50.7851 41.8044 52.9165 39.6729 56.4231V42.6031C39.6729 40.5404 38.0228 38.959 36.0289 38.959C34.0349 38.959 32.3848 40.6091 32.3848 42.6031V80.144C32.3848 82.2067 34.0349 83.7881 36.0289 83.7881C38.0228 83.7881 39.6729 82.1379 39.6729 80.144V65.4302C39.6729 60.4109 42.6295 57.4544 46.8923 57.4544C51.1552 57.4544 53.6992 60.2734 53.6992 65.2927V80.144C53.6992 82.1379 55.3494 83.7881 57.3433 83.7881H57.4121C59.3372 83.8569 60.9874 82.2755 61.0561 80.3503C61.0561 80.2815 61.0561 80.2128 61.0561 80.144V63.0237C61.0561 55.7355 56.9308 50.8538 49.7114 50.8538Z" fill="white"/>
<path d="M84.6384 50.8539C75.3563 50.6476 67.7243 57.9358 67.5181 67.2179C67.5181 67.3554 67.5181 67.4929 67.5181 67.6304V67.7679C67.9306 77.1875 75.9063 84.5445 85.3259 84.1319C94.2643 83.7194 101.346 76.5687 101.69 67.6304V67.4929C101.69 58.3483 94.333 50.8539 85.1197 50.8539C84.9134 50.8539 84.7759 50.8539 84.6384 50.8539ZM94.2643 67.6992C94.2643 73.2684 90.5514 77.7376 84.5696 77.7376C79.1379 77.6688 74.7375 73.2684 74.7375 67.7679C74.7375 67.6992 74.7375 67.6304 74.7375 67.5617V67.4241C74.7375 61.8549 78.4503 57.2482 84.4321 57.2482C90.4139 57.2482 94.2643 61.9236 94.2643 67.6992Z" fill="white"/>
<path d="M126.788 50.8535C121.631 50.8535 118.262 53.535 115.856 56.9041V54.8414C115.856 52.7787 114.206 51.1285 112.143 51.1285C110.149 51.1285 108.499 52.7787 108.499 54.7726V54.8414V89.9071C108.499 91.9698 110.149 93.5512 112.143 93.5512C114.137 93.5512 115.787 91.901 115.787 89.9071V78.5623C118.262 82.2064 122.388 84.3378 126.719 84.2691C134.351 84.2691 141.571 78.2185 141.571 67.63V67.4925C141.64 56.7665 134.283 50.8535 126.788 50.8535ZM134.145 67.5613C134.145 73.8869 130.02 77.7372 125.001 77.7372C119.981 77.7372 115.718 73.6118 115.718 67.5613V67.4238C115.718 61.3732 120.119 57.2478 125.001 57.2478C129.882 57.2478 134.145 61.3045 134.145 67.5613Z" fill="white"/>
</svg>
