<svg width="497" height="110" viewBox="0 0 497 110" fill="none" xmlns="http://www.w3.org/2000/svg">
<path d="M70.9867 23.5374C73.579 22.2617 72.8087 26.1216 72.8087 26.1216C72.4459 30.4951 69.2911 35.7123 67.0371 39.7189C64.7261 43.8112 56.6231 53.4712 53.0852 55.5621C53.2197 49.7295 59.4314 36.9717 62.6147 32.1051C64.237 29.2438 68.3944 24.8132 70.9867 23.5374ZM54.5851 81.208C79.2446 85.6916 97.2318 61.7576 108.734 41.064C113.34 32.7654 120.306 11.065 112.415 2.89682C105.192 -5.01052 99.6447 5.41168 95.3854 8.89254L98.691 12.7851C105.302 21.0837 99.6162 36.9025 95.7318 45.356C89.9032 55.7619 78.8818 71.5236 65.957 69.3633C63.1487 68.7112 60.8132 65.9966 59.8309 63.1393C66.7722 56.2306 74.9812 44.1087 79.5911 36.0465C83.4591 29.4802 90.1478 16.8162 83.9319 11.6194C78.7677 8.06105 68.4637 13.2294 62.949 17.9085C59.5985 20.9451 57.3364 23.4314 54.7278 26.9734C47.6438 36.6334 40.9103 53.1859 41.6562 65.911C38.2446 68.3892 34.3562 70.8714 29.7137 69.4611C25.116 68.4503 24.2764 64.5374 23.616 61.4723C20.6406 43.0327 39.0639 19.702 49.3964 6.29616C49.3964 6.29616 41.2201 8.53386 35.2529 8.7988C21.5292 9.42242 11.3148 3.06393 3.91699 12.2593C1.68744 15.5323 0.407595 18.9683 0 23.0402C3.04066 20.4356 7.54866 21.0429 11.8569 21.2834C19.3037 21.9193 22.9761 22.8038 29.6933 20.9737C23.7302 29.4312 13.8052 46.0937 11.9955 56.4874C11.0458 63.3757 11.164 74.2422 17.066 79.1008C26.8442 85.5652 36.5246 81.0042 45.1697 75.0003C47.7416 77.9758 50.9249 80.564 54.5851 81.208Z" fill="white"/>
<path d="M349.008 57.4312C349.709 52.4096 357.009 44.9221 357.082 44.8487C359.515 42.3828 362.682 40.3937 365.76 39.3502C367.019 38.8041 368.238 38.9141 368.988 39.6315C369.265 39.9331 369.664 40.4874 369.669 41.4004C369.669 41.9181 369.546 42.5376 369.232 43.3161C368.458 45.2685 362.572 50.9952 360.893 52.4707C359.03 54.2397 353.935 57.8102 350.01 58.4542C350.01 58.4542 349.277 58.5724 348.828 58.6417C348.885 58.2586 349.008 57.4312 349.008 57.4312ZM301.572 58.8333C301.955 55.4747 306.964 48.9573 309.642 46.2264C312.071 43.7645 315.238 41.7591 318.307 40.7442C319.926 40.3529 321.226 40.6586 321.898 41.6042C322.167 41.9955 322.31 42.452 322.318 42.9452C322.318 43.5485 322.102 44.1884 321.707 44.8242C318.373 50.1067 309.736 57.5453 302.688 59.7952C302.688 59.7952 301.865 60.0601 301.396 60.2313C301.449 59.7789 301.572 58.8333 301.572 58.8333ZM463.684 33.8844C462.331 35.6778 457.725 40.7198 456.221 42.2972C456.156 42.3624 455.455 43.0349 455.455 43.0349C443.003 55.597 433.482 62.8888 427.951 64.0749C424.188 64.9105 422.464 65.1347 420.687 61.7435C420.667 61.6742 420.618 61.5601 420.618 61.5601C420.618 61.5356 420.43 59.9623 420.43 59.9623C420.422 55.4462 426.259 45.3134 434.089 38.5188C437.081 35.8938 437.427 34.7322 437.468 34.4428C436.351 32.6901 435.666 31.8627 434.146 31.2391C431.957 31.1291 428.619 33.4524 426.418 35.0053C424.857 36.0773 420.439 40.1654 415.751 44.4737C411.851 48.0728 407.815 51.7982 405.561 53.6568C405.561 53.6568 402.423 56.241 401.746 56.8116C401.775 56.1513 401.848 54.8185 401.848 54.8185C401.93 52.487 404.367 48.6026 407.848 43.3569C409.111 41.429 412.23 35.955 412.6 34.989L412.645 34.8912L412.596 34.8015C411.577 33.1385 409.625 31.8505 408.072 31.7771C407.905 31.8383 406.678 32.8532 406.678 32.8532C404.049 35.0134 398.432 40.1043 393.011 45.0321C388.027 49.5646 383.331 53.828 382.157 54.6758C373.015 61.5112 365.075 65.9703 357.249 68.7501C355.843 69.1577 351.058 70.3275 348.686 67.6618C348.686 67.6618 348.143 67.0626 347.862 66.7243C348.213 66.5531 348.987 66.227 348.987 66.227C355.827 63.2924 364.447 59.2613 370.7 53.8769C370.785 53.7954 380.286 45.6109 380.262 37.565C380.262 37.2063 380.229 36.8721 380.209 36.5215C379.61 33.6317 377.136 32.7513 373.614 32.3152C362.099 32.4171 351.771 39.5296 346.411 45.5864L345.47 46.6217C342.983 49.3445 335.431 57.5983 332.37 64.9227C332.37 64.9227 332.235 65.257 332.194 65.31C332.17 65.2896 331.909 65.4078 331.909 65.4078C326.72 67.6129 321.087 69.7405 314.818 70.413C311.44 70.8451 306.642 71.1467 303.96 68.7052C303.96 68.7052 303.292 68.1264 303.002 67.8534C303.532 67.568 316.078 60.8142 316.078 60.8142C326.419 54.5005 333.336 44.9098 333.323 39.925C333.083 34.1412 327.674 32.845 323.162 32.792C316.453 32.8532 310.282 35.3436 302.493 41.1111C297.981 44.4574 288.533 55.3035 286.03 66.4227C286.03 66.4227 285.965 66.7814 285.912 66.9444C285.712 67.0096 284.93 67.193 284.93 67.193C279.977 68.4362 271.654 70.4783 270.105 65.6483C267.615 57.7858 275.473 50.1963 281.771 44.1028C281.771 44.0946 285.313 40.6016 285.313 40.6016C285.81 40.0391 286.409 38.7389 286.242 37.7158C286.169 37.2308 285.928 36.8721 285.488 36.6071C282.113 35.1276 278.869 36.2892 275.441 37.5242C272.865 38.4372 270.191 39.3788 267.37 39.1872C267.37 39.1872 266.82 39.122 266.482 39.1016C266.514 38.8041 266.559 38.1968 266.559 38.1968C266.71 36.5338 267.664 35.5352 268.532 34.6629C268.548 34.6588 268.805 34.3654 268.805 34.3654C268.956 34.186 269.042 33.8436 269.042 33.4523C269.042 33.0977 268.98 32.7065 268.825 32.3681C268.597 31.8383 268.255 31.5244 267.847 31.4959C265.858 31.2473 262.455 33.2119 259.357 36.3544C256.382 39.3951 254.523 42.6762 254.531 44.9261L254.56 45.3867C254.576 45.4479 254.568 45.5742 254.568 45.5742C254.213 50.6732 249.791 55.5725 243.64 62.3671L240.966 65.3263C240.979 65.3263 239.943 66.3901 239.943 66.3901C236.251 70.1766 233.923 73.0054 233.206 74.5705L232.99 75.0229L233.499 74.8884C236.112 74.0896 243.636 70.4334 257.079 53.4163C257.079 53.4163 257.278 53.1759 257.364 53.0251C257.539 53.0454 257.865 53.0984 257.865 53.0984C258.497 53.1759 259.267 52.8457 260.083 52.5278C261.452 51.9735 263.025 51.3621 264.509 52.3362C264.509 52.3362 265.08 52.7031 265.324 52.8702C265.067 53.1922 262.687 56.2491 262.687 56.2491C258.937 60.9772 255.09 65.8317 255.106 71.6399C255.106 72.7486 255.244 73.898 255.579 75.0841C256.3 78.4916 259.793 80.0893 262.561 80.4399C268.165 81.3896 275.184 78.2756 281.379 75.5406L284.518 74.1548C286.271 73.6697 286.776 74.7417 287.151 75.5161C287.579 76.4414 288.203 77.7457 290.909 78.9114C299.97 82.9914 313.257 80.9331 330.405 72.7893C330.405 72.7893 330.918 72.5407 331.24 72.3899C331.363 72.6915 331.587 73.2907 331.587 73.2907C332.834 76.6166 335.17 78.6628 338.964 79.747C353.756 81.679 365.927 73.1888 377.686 64.9839C377.702 64.9757 383.054 60.8794 383.934 60.2028C384.15 60.4188 385.125 61.4582 385.251 61.6294C385.059 61.9147 380.087 68.9416 380.087 68.9416C378.35 71.4972 376.732 73.8898 375.717 76.58C375.717 76.5718 375.424 77.7171 375.424 77.7171L375.558 78.3041C375.819 78.7647 376.447 79.0785 377.372 79.2089C386.347 77.9454 394.968 70.5965 400.658 65.7502L402.362 64.2991C404.815 62.1511 407.151 60.1498 408.088 59.9419C408.088 59.9419 408.443 59.836 408.622 59.7871C408.753 59.9419 409.034 60.2558 409.034 60.2558C409.067 60.2884 409.067 60.3495 409.067 60.3944C409.067 60.8386 408.414 61.8739 407.929 62.5954L407.041 64.0586C406.279 65.6564 404.762 68.8071 404.771 71.591C404.771 72.6059 404.983 73.5964 405.537 74.4279C408.239 78.5731 410.583 78.6994 413.114 78.8421L414.015 78.8869C424.604 78.1777 434.969 68.9661 445.008 60.0398L452.492 53.5264C452.492 53.5264 458.528 48.2195 459.755 47.119C459.922 47.4981 460.179 48.2114 460.179 48.2114C460.941 50.1474 461.108 51.9123 461.108 53.0454L460.933 55.1527C460.819 56.0861 459.164 62.6117 456.886 64.4703C456.869 64.4703 456.405 64.7312 456.405 64.7312C456.388 64.7312 454.95 65.1062 454.95 65.1062C449.41 66.5368 443.146 68.1509 440.822 73.682C440.81 73.7064 440.614 74.9374 440.614 74.9374C440.619 75.6832 440.904 76.7511 442.159 77.5826C446.072 78.5772 450.12 77.5989 453.678 76.7308L458.276 75.7362C462.013 75.7485 465.665 76.1846 469.187 76.5922C474.09 77.1628 478.704 77.7171 483.603 77.2036C489.933 75.5324 494.975 68.318 496.524 62.3549L496.663 61.8739L496.19 62.1063C488.328 66.0233 479.242 66.2189 471.869 62.6321C471.869 62.6321 471.355 62.3753 471.123 62.253C471.225 62.0084 471.453 61.4378 471.453 61.4378C471.506 61.3237 475.961 50.3512 475.924 36.1425C475.92 35.4944 475.912 34.8382 475.888 34.1819H475.92C475.831 33.8355 475.786 33.5176 475.786 33.1996C475.778 31.8913 476.442 30.8193 477.041 29.8411C477.653 28.871 478.166 28.0191 478.166 27.0124C478.166 26.8615 478.154 26.7148 478.146 26.5558C478.117 26.5395 478.117 26.4988 478.117 26.4702C478.117 26.352 478.154 26.1849 478.154 26.1849C478.166 26.1686 478.166 26.1482 478.166 26.1238C478.162 25.7773 477.616 25.598 477.343 25.5287C471.18 23.9839 467.699 28.5653 463.684 33.8844Z" fill="white"/>
<path d="M204.794 67.0606L204.647 66.9668C202.3 65.2712 201.55 62.8909 202.524 60.0785C203.384 56.8055 212.428 46.7623 219.602 45.3439C226.111 44.0681 228.72 46.261 229.971 47.3044C229.971 47.3248 230.66 47.8547 230.986 48.1441C230.713 48.4376 227.473 51.9347 227.473 51.9347C222.704 58.7008 210.761 69.8159 204.794 67.0606ZM187.728 29.3132C190.439 25.9587 194.91 22.9914 196.251 22.3596C197.278 21.8705 197.828 22.4452 197.975 22.6327C198.203 22.9058 198.277 23.2849 198.285 23.6639C198.285 24.1041 198.15 24.5484 197.991 24.7359L198.044 24.7441C195.68 33.0794 180.64 50.7812 171.983 56.993C171.983 56.993 170.939 57.7266 170.324 58.175C170.409 57.5106 170.585 56.1737 170.585 56.1737C171.302 50.2514 182.486 35.7817 187.728 29.3132ZM121.213 46.9906C126.829 44.2312 133.856 44.4105 139.106 47.4553C139.106 47.4553 139.705 47.7976 140.011 47.981C139.77 48.3357 136.167 53.3776 136.167 53.3776C130.237 60.6206 118.775 67.8228 113.864 67.3866V67.3744C111.577 67.1869 109.975 66.066 109.576 64.3623L109.49 62.9194C109.474 58.0283 115.963 50.447 119.366 48.1319C119.325 48.1482 121.213 46.9906 121.213 46.9906ZM204.99 11.1304H204.982C197.021 11.8885 189.534 16.3476 180.705 25.5715C177.106 29.0075 160.44 49.8438 157.729 65.6625C157.729 65.6625 157.688 65.9682 157.66 66.0946C157.542 66.1516 157.281 66.2984 157.281 66.2984C154.855 67.6027 147.572 70.7534 142.954 69.604C141.568 69.2616 140.533 68.5442 139.905 67.4845C139.196 66.1109 138.845 64.7128 138.845 63.2292C138.833 59.7809 140.724 56.7036 142.367 53.936C142.387 53.9238 143.247 52.4727 143.312 52.3749C143.341 52.3994 143.626 52.3138 143.626 52.3138C147.898 51.0747 154.578 42.9024 156.266 37.9135L156.315 37.7708L156.184 37.6893C151.195 34.6445 144.499 34.7383 139.774 35.3334C131.985 36.2627 123.136 39.711 116.073 44.5573C107.579 50.394 100.258 62.2428 98.7419 69.6569C97.9227 73.8918 97.3887 78.1879 100.315 80.1729C106.413 83.6904 118.359 77.2382 126.511 69.3961C126.511 69.3961 127.571 68.3771 128.207 67.7657C128.15 68.6257 127.95 70.9572 127.95 70.9572C127.852 71.968 127.759 73.1256 127.763 74.2709C127.771 76.4312 128.138 78.5996 129.564 79.9406C136.31 85.2678 150.164 79.374 157.802 74.1242C157.802 74.1242 158.251 73.8103 158.487 73.6554C158.671 73.8796 159.005 74.3117 159.005 74.3117C161.45 77.3156 164.332 80.5479 167.597 81.0818C176.144 82.2557 182.825 77.3075 188.759 71.8009C188.759 71.8009 189.534 71.0835 189.917 70.7126C190.039 71.3444 190.504 73.4598 190.504 73.4598C190.948 75.6608 191.352 77.7395 193.059 79.1091C197.388 82.4391 207.04 77.8659 212.473 73.9897C212.473 73.9897 213.733 73.1052 214.45 72.5753C214.267 73.3375 213.855 74.919 213.855 74.919C212.934 78.5181 211.23 81.9704 209.563 85.3086L208.083 88.3615L207.835 88.7609L207.399 89.4783C205.083 93.1996 200.804 100.161 196.618 100.785L196.328 100.826C195.252 100.443 194.563 99.8393 194.197 99.0323L193.883 97.4794C193.875 95.5963 194.853 93.4686 195.721 91.5733L195.896 91.2024L195.493 91.2309C193.544 91.5326 191.816 92.36 189.909 93.3464C186.045 95.6452 182.075 100.834 182.083 105.493C182.083 106.459 182.246 107.372 182.58 108.215C183.383 109.993 185.49 110.037 186.371 109.993C212.897 107.441 227.709 77.3075 238.514 55.2974L240.638 50.9483C241.298 50.0802 241.4 49.5584 241.4 49.2527L241.38 48.9919C241.339 48.9552 240.972 48.4987 240.972 48.4987C241.005 48.5313 240.703 46.9213 240.703 46.9213C241.135 44.7937 246.271 40.3101 246.324 40.2571C246.324 40.2694 246.972 39.768 246.972 39.768C247.498 39.4256 247.828 39.071 247.836 38.7898C247.836 38.4841 247.494 38.0806 246.968 37.7504C245.92 37.0779 244.791 36.601 240.475 35.4149C232.498 33.2057 218.791 34.9176 206.392 46.9947C205.083 48.246 202.691 51.2866 200.743 53.7281L198.232 56.8625C192.187 63.9506 185.963 71.3077 175.627 69.286C174.277 68.7317 172.839 67.5945 172.284 66.2046C171.991 65.4016 172.007 64.5987 172.341 63.8772L172.472 63.6205C178.19 59.5853 184.06 54.3558 190.08 48.0137C200.204 37.135 212.583 18.8584 210.936 14.3341C209.714 11.1793 206.09 11.0774 204.99 11.1304Z" fill="white"/>
</svg>
