<svg width="286" height="130" viewBox="0 0 286 130" fill="none" xmlns="http://www.w3.org/2000/svg">
<path d="M142.525 0L68.9152 31.326H22.9997V44.1054H0V130H285.019V44.1054H262.031V31.326H216.131L142.525 0Z" fill="#012269"/>
<path d="M210.493 54.168L210.49 68.054L219.532 68.0699L221.417 54.1719L210.493 54.168Z" fill="white"/>
<path d="M259.387 66.1999C259.97 66.1999 260.497 66.1565 260.497 65.4503C260.497 64.895 259.978 64.7918 259.499 64.7918H258.557V66.1999H259.387ZM258.557 68.7463H257.866V64.2088H259.607C260.681 64.2088 261.216 64.6054 261.216 65.5018C261.216 66.3149 260.709 66.668 260.038 66.7513L261.336 68.7463H260.561L259.355 66.779H258.557V68.7463ZM259.395 69.7616C261.188 69.7616 262.601 68.3695 262.601 66.4697C262.601 64.6055 261.188 63.2014 259.395 63.2014C257.579 63.2014 256.166 64.6055 256.166 66.4697C256.166 68.3695 257.579 69.7616 259.395 69.7616ZM255.367 66.4697C255.367 64.2089 257.212 62.543 259.395 62.543C261.555 62.543 263.404 64.2089 263.404 66.4697C263.404 68.7463 261.555 70.4201 259.395 70.4201C257.212 70.4201 255.367 68.7463 255.367 66.4697Z" fill="white"/>
<path d="M45.4659 101.49V54.168H32.439V112.758H65.623V101.49H45.4659Z" fill="white"/>
<path d="M176.604 112.76H207.613V101.475H189.695V94.1219H207.613V83.2582H189.695V75.8649H207.613V64.5332H176.604V64.5887V112.76Z" fill="white"/>
<path d="M95.3969 75.865H83.939V101.428H95.3969V75.865ZM108.448 106.6C108.448 109.999 105.673 112.76 102.248 112.76H77.0842C73.6628 112.76 70.8882 109.999 70.8882 106.6V70.6929C70.8882 67.2898 73.6628 64.5332 77.0842 64.5332H102.248C105.673 64.5332 108.448 67.2898 108.448 70.6929V106.6Z" fill="white"/>
<path d="M156.105 64.5391V101.493H148.24V64.5391H136.782V101.493H128.918V64.5391H115.867V106.602C115.867 110.005 118.641 112.766 122.067 112.766H137.493C140.092 112.766 142.511 110.981 142.511 108.399C142.511 110.981 144.931 112.766 147.53 112.766H162.96C166.381 112.766 169.156 110.005 169.156 106.602V64.5391H156.105Z" fill="white"/>
<path d="M253.36 94.5366L253.363 94.5398L253.283 94.3733C253.231 94.2701 253.179 94.1708 253.127 94.068L253.048 93.9093C250.984 89.7963 246.36 86.3614 238.919 83.4026L238.655 83.3036C237.182 82.7285 232.699 80.9873 232.2 78.1553C232.064 77.3621 232.388 76.1166 233.278 75.3591C234.216 74.4111 235.653 73.9232 237.549 73.9232C240.584 73.9232 244.033 75.1567 245.822 75.8905C249.586 77.4413 252.888 78.8256 252.92 78.8455L253.247 78.9803V68.4536L253.14 68.3861C253.068 68.3385 245.949 63.8803 238.759 62.857C237.933 62.7856 237.114 62.7539 236.328 62.7539C229.709 62.7539 224.694 65.1417 221.429 69.8537C218.686 73.7248 218.383 79.8528 220.714 84.4259C223.712 89.594 228.519 91.7517 233.17 93.8419C235.086 94.6987 237.071 95.595 238.927 96.6897L238.946 96.7024C241.046 97.9558 242.116 99.8715 241.673 101.573C241.214 103.338 239.182 104.524 236.615 104.524C236.263 104.524 235.908 104.505 235.561 104.457L235.437 104.441C230.498 103.759 220.486 100.054 220.386 100.014L220.066 99.8955V111.437L220.23 111.493C220.322 111.525 230.015 114.714 238.619 114.714C243.314 114.714 246.862 113.774 249.154 111.925C249.21 111.886 254.467 107.685 254.699 100.542C254.763 98.5668 254.314 96.5436 253.36 94.5366Z" fill="white"/>
</svg>
