<svg width="561" height="90" viewBox="0 0 561 90" fill="none" xmlns="http://www.w3.org/2000/svg">
<path d="M296.678 0C323.075 0 344.475 20.1187 344.475 44.9718V45C344.475 69.8532 323.075 90 296.678 90C270.279 90 248.88 69.8532 248.88 45V44.9718C248.88 20.1187 270.279 0 296.678 0Z" fill="white"/>
<path d="M221.613 0.580078C229.152 0.580078 235.475 2.10306 243.173 5.77612V25.1892C235.884 18.4804 229.56 15.6725 221.197 15.6725C204.76 15.6725 191.836 28.4835 191.836 44.7252C191.836 61.8525 204.362 73.9007 222.012 73.9007C229.957 73.9007 236.163 71.2387 243.173 64.6382V84.0607C235.202 87.5947 228.744 88.988 221.197 88.988C194.511 88.988 173.775 69.708 173.775 44.8463C173.773 20.2483 195.062 0.580078 221.613 0.580078ZM138.755 1.11418C148.606 1.11418 157.619 4.28898 165.155 10.4944L155.985 21.7977C151.419 16.9805 147.102 14.949 141.853 14.949C134.299 14.949 128.798 18.9966 128.798 24.3241C128.798 28.8921 131.885 31.3101 142.402 34.973C162.336 41.8353 168.244 47.9213 168.244 61.3593C168.244 77.735 155.467 89.1348 137.257 89.1348C123.92 89.1348 114.226 84.1904 106.151 73.0338L117.472 62.7697C121.507 70.1141 128.241 74.0517 136.601 74.0517C144.419 74.0517 150.207 68.9751 150.207 62.1213C150.207 58.5685 148.453 55.5234 144.953 53.369C143.19 52.3495 139.699 50.8282 132.838 48.5518C116.378 42.9735 110.731 37.0104 110.731 25.3564C110.73 11.5114 122.858 1.11418 138.755 1.11418ZM339.02 2.58938H358.163L382.125 59.4063L406.396 2.58938H425.394L386.579 89.3523H377.148L339.02 2.58938ZM82.025 2.71908H99.5508V87.3089H82.025V2.71908ZM433.317 2.71908H483.019V17.0522H450.831V35.8279H481.833V50.1541H450.831V72.9877H483.019V87.3089H433.317V2.71908ZM531.94 51.6737C545.14 49.1439 552.402 40.6451 552.402 27.6942C552.402 11.8569 540.82 2.71993 520.607 2.71993H494.623V87.3106H512.127V53.3272H514.415L538.672 87.3089H560.224L531.94 51.6737ZM517.249 41.6604H512.128V16.0428H517.526C528.439 16.0428 534.371 20.3507 534.371 28.5824C534.373 37.0864 528.441 41.6604 517.249 41.6604ZM25.7234 2.71908H0V87.3089H25.5895C39.1948 87.3089 49.0229 84.2859 57.6471 77.5439C67.8976 69.5587 73.9579 57.5216 73.9579 45.0733C73.9588 20.1092 54.1456 2.71908 25.7234 2.71908ZM46.1979 66.2653C40.6913 70.9443 33.5388 72.9877 22.2159 72.9877H17.5113V17.0522H22.215C33.538 17.0522 40.408 18.9616 46.1971 23.8932C52.2583 28.9749 55.904 36.8483 55.904 44.9521C55.9049 53.0687 52.2583 61.1836 46.1979 66.2653Z" fill="white"/>
</svg>
