<svg width="286" height="130" viewBox="0 0 286 130" fill="none" xmlns="http://www.w3.org/2000/svg">
<path d="M259.387 66.1999C259.97 66.1999 260.497 66.1565 260.497 65.4503C260.497 64.895 259.978 64.7918 259.499 64.7918H258.557V66.1999H259.387ZM258.557 68.7463H257.866V64.2088H259.607C260.681 64.2088 261.216 64.6054 261.216 65.5018C261.216 66.3149 260.709 66.668 260.038 66.7513L261.336 68.7463H260.561L259.355 66.779H258.557V68.7463ZM259.395 69.7616C261.188 69.7616 262.601 68.3695 262.601 66.4697C262.601 64.6055 261.188 63.2014 259.395 63.2014C257.579 63.2014 256.166 64.6055 256.166 66.4697C256.166 68.3695 257.579 69.7616 259.395 69.7616ZM255.367 66.4697C255.367 64.2089 257.212 62.543 259.395 62.543C261.555 62.543 263.404 64.2089 263.404 66.4697C263.404 68.7463 261.555 70.4201 259.395 70.4201C257.212 70.4201 255.367 68.7463 255.367 66.4697Z" fill="#292929"/>
<path fill-rule="evenodd" clip-rule="evenodd" d="M142.525 0L68.9152 31.326H22.9997V44.1054H0V130H285.019V44.1054H262.031V31.326H216.131L142.525 0ZM210.495 54.168L210.492 68.054L219.535 68.0699L221.419 54.1719L210.495 54.168ZM45.4634 54.168V101.49H65.6206V112.758H32.4365V54.168H45.4634ZM176.604 112.762H207.613V101.477H189.695V94.1238H207.613V83.2601H189.695V75.8669H207.613V64.5352H176.604V64.5906V112.762ZM83.9395 75.8709H95.3974V101.434H83.9395V75.8709ZM102.248 112.766C105.674 112.766 108.448 110.005 108.448 106.606V70.6988C108.448 67.2957 105.674 64.5391 102.248 64.5391H77.0847C73.6633 64.5391 70.8887 67.2957 70.8887 70.6988V106.606C70.8887 110.005 73.6633 112.766 77.0847 112.766H102.248ZM156.105 64.5391V101.493H148.24V64.5391H136.782V101.493H128.918V64.5391H115.867V106.602C115.867 110.005 118.641 112.766 122.067 112.766H137.493C140.092 112.766 142.511 110.981 142.511 108.399C142.511 110.981 144.931 112.766 147.53 112.766H162.96C166.381 112.766 169.156 110.005 169.156 106.602V64.5391H156.105ZM253.363 94.5398L253.36 94.5366C254.314 96.5436 254.763 98.5668 254.699 100.542C254.467 107.685 249.21 111.886 249.154 111.925C246.862 113.774 243.314 114.714 238.619 114.714C230.015 114.714 220.322 111.525 220.23 111.493L220.066 111.437V99.8955L220.386 100.014C220.486 100.054 230.498 103.759 235.437 104.441L235.561 104.457C235.908 104.505 236.263 104.524 236.615 104.524C239.182 104.524 241.214 103.338 241.673 101.573C242.116 99.8715 241.046 97.9558 238.946 96.7024L238.927 96.6897C237.071 95.595 235.086 94.6987 233.17 93.8419L233.161 93.8378C228.513 91.7488 223.71 89.5906 220.714 84.4259C218.383 79.8528 218.686 73.7248 221.429 69.8537C224.694 65.1417 229.709 62.7539 236.328 62.7539C237.114 62.7539 237.933 62.7856 238.759 62.857C245.949 63.8803 253.068 68.3385 253.14 68.3861L253.247 68.4536V78.9803L252.92 78.8455C252.888 78.8256 249.586 77.4413 245.822 75.8905C244.033 75.1567 240.584 73.9232 237.549 73.9232C235.653 73.9232 234.216 74.4111 233.278 75.3591C232.388 76.1166 232.064 77.3621 232.2 78.1553C232.697 80.9777 237.152 82.7167 238.64 83.2977L238.655 83.3036L238.919 83.4026C246.36 86.3614 250.984 89.7963 253.048 93.9093L253.127 94.068C253.179 94.1708 253.231 94.2701 253.283 94.3733L253.363 94.5398Z" fill="white"/>
</svg>
