<svg width="143" height="170" viewBox="0 0 143 170" fill="none" xmlns="http://www.w3.org/2000/svg">
<path d="M71.1427 170C71.1427 170 31.4184 152.641 19.1399 142.877C6.13922 132.028 0 117.201 0 100.204V15.581C31.4184 -1.41594 71.1427 0.0306046 71.1427 0.0306046C71.1427 0.0306046 110.867 -1.41594 142.285 15.581V99.8424C142.285 116.839 136.146 131.666 123.146 142.516C110.867 152.641 71.1427 170 71.1427 170ZM5.77809 100.204C5.77809 116.116 11.5562 129.135 22.7512 138.176C32.8629 146.494 62.8367 159.874 71.1427 163.491C79.4487 159.874 109.784 146.132 119.534 138.176C130.729 129.135 136.507 115.754 136.507 100.204V17.0275C94.6162 13.0495 44.7802 15.2194 5.77809 51.3831V100.204Z" fill="white"/>
<path d="M111.229 88.2709C116.646 91.5256 118.813 93.6955 119.174 97.6735C119.174 102.013 116.285 104.545 111.591 104.545C107.618 104.545 102.923 102.375 99.6732 99.4817V111.054C103.646 113.224 108.34 115.032 113.396 115.032C125.675 115.032 131.453 106.353 131.453 98.3967C131.814 91.164 129.647 85.3778 119.174 79.23C114.48 76.3369 110.868 74.5287 110.868 70.1891C110.868 65.8494 114.841 64.0412 118.091 64.0412C122.424 64.0412 126.758 66.5727 129.286 69.1041V58.255C127.119 56.4469 122.424 53.9154 115.563 54.277C107.257 54.6387 98.5898 60.4249 98.5898 70.5507C98.9509 77.4218 101.118 82.4847 111.229 88.2709ZM68.616 114.309C69.6994 114.67 71.505 115.032 74.3941 115.032C88.4782 115.032 96.423 102.375 96.423 84.2929C96.423 65.8494 88.117 54.6387 73.3107 54.6387C66.4492 54.6387 61.0322 56.0852 56.3375 58.9783V140.708H68.616V114.309ZM68.616 65.1261C69.6994 64.7645 71.505 64.0412 72.9495 64.0412C80.1721 64.0412 83.0612 69.8274 83.0612 83.9313C83.0612 97.6735 79.4499 104.183 72.2273 104.183C70.4216 104.183 68.9771 103.821 68.2548 103.46V65.1261H68.616ZM30.6972 115.032C38.281 115.032 44.7813 113.224 49.476 109.969V55.3619H36.8365V102.736C35.3919 103.821 33.5863 104.183 31.0584 104.183C25.2803 104.183 24.558 98.7584 24.558 95.5037V55.3619H11.9185V94.7804C11.9185 108.161 18.4188 115.032 30.6972 115.032Z" fill="white"/>
</svg>
