<svg width="500" height="111" viewBox="0 0 500 111" fill="none" xmlns="http://www.w3.org/2000/svg">
<g clip-path="url(#clip0_1558_292)">
<path d="M488.968 0.0761719L461.655 58.5059L451.385 36.3665H440.277L457.167 72.5807H466.144L500 0.0761719H488.968Z" fill="#D52B1E"/>
<path d="M371.805 108.566H393.792V68.3193C393.792 59.1136 399.117 52.6467 407.03 52.6467C414.638 52.6467 418.594 57.9724 418.594 65.6565V108.566H440.581V61.4721C440.581 45.4952 430.995 34.2353 415.475 34.2353C405.584 34.2353 398.661 38.4958 393.488 46.256H393.031V36.3655H371.729L371.805 108.566ZM328.591 34.3875C305.615 34.3875 290.246 50.8969 290.246 72.6559C290.246 94.2627 305.615 110.924 328.591 110.924C351.567 110.924 366.935 94.2627 366.935 72.6559C367.012 50.8969 351.567 34.3875 328.591 34.3875ZM328.439 94.6431C318.016 94.6431 312.462 85.8939 312.462 72.6559C312.462 59.2657 317.94 50.6687 328.439 50.6687C338.862 50.6687 344.644 59.2657 344.644 72.6559C344.72 85.8939 338.938 94.6431 328.439 94.6431ZM227.556 108.566H289.334V91.2195H254.337V90.763L287.812 53.2554V36.2895H227.556V53.7119H261.412V54.1683L227.556 91.9803V108.566ZM199.33 108.566H221.47V36.3655H199.33V108.566ZM147.976 108.566H170.04V75.3948C170.04 60.3309 179.093 53.6358 192.864 55.5378H193.32V36.5177C192.179 36.0612 190.886 35.9851 188.831 35.9851C180.234 35.9851 174.452 39.9413 169.507 48.3862H169.051V36.3655H147.976V108.566ZM107.502 94.7192C97.7632 94.7192 91.829 88.4045 90.6878 78.6662H142.727C142.879 63.1458 138.771 50.7447 130.173 42.9845C124.087 37.3546 116.099 34.2353 105.904 34.2353C84.1449 34.2353 69.081 50.7447 69.081 72.3516C69.081 94.1105 83.4601 110.696 107.349 110.696C116.403 110.696 123.554 108.261 129.489 104.229C135.803 99.8926 140.368 93.5019 141.586 87.1872H120.435C118.381 91.9042 113.968 94.7192 107.502 94.7192ZM106.36 49.9839C114.121 49.9839 119.446 55.766 120.359 64.211H90.8399C92.5898 55.69 97.2307 49.9839 106.36 49.9839ZM25.1065 108.566H48.2349L73.3414 36.3655H51.2021L37.1272 82.7746H36.8229L22.748 36.3655H0L25.1065 108.566ZM199.33 10.6504H221.47V30.2791H199.33V10.6504Z" fill="black"/>
</g>
<defs>
<clipPath id="clip0_1558_292">
<rect width="500" height="111" fill="white"/>
</clipPath>
</defs>
</svg>
