<svg width="497" height="110" viewBox="0 0 497 110" fill="none" xmlns="http://www.w3.org/2000/svg">
<path d="M70.985 23.5349C73.5772 22.2592 72.8069 26.119 72.8069 26.119C72.4442 30.4924 69.2894 35.7095 67.0355 39.7161C64.7245 43.8082 56.6217 53.468 53.0839 55.5589C53.2184 49.7263 59.43 36.9689 62.6132 32.1024C64.2354 29.2411 68.3928 24.8107 70.985 23.5349ZM54.5838 81.2041C79.2427 85.6876 97.2294 61.7542 108.731 41.0611C113.337 32.7627 120.303 11.0628 112.412 2.89484C105.19 -5.01231 99.6423 5.40963 95.383 8.89041L98.6885 12.7828C105.3 21.0813 99.6138 36.8997 95.7295 45.353C89.901 55.7586 78.8799 71.5199 65.9554 69.3597C63.1471 68.7076 60.8117 65.9931 59.8294 63.1359C66.7706 56.2273 74.9793 44.1058 79.5891 36.0437C83.4571 29.4775 90.1456 16.8139 83.9299 11.6172C78.7658 8.05894 68.462 13.2271 62.9474 17.9062C59.5971 20.9427 57.335 23.429 54.7264 26.9709C47.6426 36.6306 40.9093 53.1827 41.6552 65.9075C38.2437 68.3856 34.3553 70.8678 29.7129 69.4575C25.1154 68.4467 24.2758 64.5339 23.6155 61.4689C20.6401 43.0297 39.0629 19.6996 49.3952 6.2941C49.3952 6.2941 41.2191 8.53174 35.252 8.79667C21.5286 9.42027 11.3146 3.06194 3.91689 12.2571C1.6874 15.53 0.407585 18.9659 0 23.0377C3.04058 20.4332 7.54847 21.0405 11.8566 21.281C19.3032 21.9168 22.9756 22.8013 29.6926 20.9712C23.7296 29.4286 13.8049 46.0907 11.9952 56.4841C11.0456 63.3723 11.1638 74.2385 17.0656 79.0969C26.8435 85.5612 36.5237 81.0003 45.1686 74.9966C47.7404 77.972 50.9237 80.5602 54.5838 81.2041Z" fill="#E51636"/>
<path d="M348.999 57.4278C349.7 52.4064 357 44.919 357.074 44.8457C359.507 42.3798 362.674 40.3908 365.751 39.3473C367.011 38.8012 368.229 38.9112 368.979 39.6286C369.256 39.9302 369.656 40.4845 369.66 41.3975C369.66 41.9151 369.538 42.5347 369.224 43.3131C368.449 45.2655 362.564 50.992 360.885 52.4675C359.022 54.2364 353.927 57.8069 350.002 58.4509C350.002 58.4509 349.268 58.5691 348.82 58.6383C348.877 58.2552 348.999 57.4278 348.999 57.4278ZM301.565 58.8299C301.948 55.4714 306.957 48.9541 309.635 46.2233C312.064 43.7615 315.231 41.7562 318.3 40.7413C319.918 40.35 321.218 40.6557 321.891 41.6013C322.16 41.9926 322.303 42.4491 322.311 42.9422C322.311 43.5455 322.095 44.1854 321.699 44.8212C318.365 50.1035 309.729 57.5419 302.681 59.7918C302.681 59.7918 301.858 60.0567 301.389 60.2279C301.442 59.7755 301.565 58.8299 301.565 58.8299ZM463.673 33.8816C462.32 35.675 457.714 40.7168 456.211 42.2942C456.145 42.3594 455.444 43.0319 455.444 43.0319C442.993 55.5937 433.471 62.8854 427.94 64.0715C424.178 64.907 422.454 65.1312 420.677 61.7401C420.657 61.6708 420.608 61.5567 420.608 61.5567C420.608 61.5322 420.42 59.9589 420.42 59.9589C420.412 55.4429 426.249 45.3103 434.079 38.5159C437.07 35.891 437.417 34.7294 437.458 34.44C436.341 32.6874 435.656 31.86 434.136 31.2364C431.947 31.1264 428.609 33.4496 426.408 35.0025C424.847 36.0744 420.429 40.1625 415.741 44.4707C411.841 48.0697 407.806 51.795 405.552 53.6536C405.552 53.6536 402.413 56.2377 401.737 56.8083C401.765 56.148 401.839 54.8152 401.839 54.8152C401.92 52.4838 404.358 48.5995 407.838 43.3539C409.102 41.426 412.22 35.9522 412.591 34.9862L412.636 34.8884L412.587 34.7987C411.568 33.1358 409.615 31.8478 408.062 31.7744C407.895 31.8356 406.669 32.8504 406.669 32.8504C404.04 35.0106 398.423 40.1014 393.002 45.0291C388.017 49.5614 383.322 53.8248 382.148 54.6725C373.006 61.5077 365.066 65.9667 357.241 68.7465C355.835 69.154 351.05 70.3238 348.677 67.6582C348.677 67.6582 348.135 67.059 347.854 66.7208C348.205 66.5496 348.979 66.2235 348.979 66.2235C355.818 63.2889 364.439 59.2579 370.691 53.8737C370.777 53.7922 380.277 45.6079 380.253 37.5621C380.253 37.2034 380.22 36.8692 380.2 36.5187C379.601 33.6289 377.127 32.7485 373.605 32.3124C362.091 32.4143 351.763 39.5267 346.403 45.5834L345.462 46.6187C342.975 49.3413 335.423 57.5949 332.362 64.9192C332.362 64.9192 332.227 65.2534 332.186 65.3064C332.162 65.2861 331.901 65.4043 331.901 65.4043C326.713 67.6093 321.08 69.7369 314.811 70.4094C311.432 70.8414 306.635 71.1431 303.953 68.7016C303.953 68.7016 303.285 68.1228 302.995 67.8498C303.525 67.5645 316.071 60.8108 316.071 60.8108C326.411 54.4973 333.328 44.9068 333.315 39.922C333.075 34.1384 327.666 32.8423 323.154 32.7893C316.446 32.8504 310.275 35.3408 302.486 41.1081C297.974 44.4544 288.526 55.3002 286.023 66.4191C286.023 66.4191 285.958 66.7778 285.905 66.9408C285.705 67.0061 284.923 67.1895 284.923 67.1895C279.971 68.4326 271.648 70.4746 270.099 65.6447C267.609 57.7824 275.467 50.1932 281.764 44.0998C281.764 44.0916 285.306 40.5986 285.306 40.5986C285.803 40.0362 286.402 38.736 286.235 37.7129C286.162 37.2279 285.922 36.8692 285.481 36.6043C282.107 35.1248 278.862 36.2864 275.434 37.5214C272.858 38.4344 270.185 39.3759 267.364 39.1843C267.364 39.1843 266.814 39.1191 266.476 39.0987C266.508 38.8012 266.553 38.1939 266.553 38.1939C266.704 36.5309 267.658 35.5324 268.526 34.6601C268.542 34.656 268.799 34.3626 268.799 34.3626C268.95 34.1832 269.035 33.8409 269.035 33.4496C269.035 33.095 268.974 32.7037 268.819 32.3654C268.591 31.8356 268.249 31.5217 267.841 31.4932C265.852 31.2446 262.449 33.2091 259.351 36.3516C256.376 39.3922 254.517 42.6732 254.525 44.9231L254.554 45.3837C254.57 45.4448 254.562 45.5712 254.562 45.5712C254.207 50.6701 249.785 55.5692 243.635 62.3637L240.961 65.3227C240.973 65.3227 239.938 66.3865 239.938 66.3865C236.245 70.173 233.918 73.0016 233.2 74.5668L232.984 75.0192L233.494 74.8847C236.106 74.0858 243.63 70.4298 257.073 53.4131C257.073 53.4131 257.272 53.1726 257.358 53.0218C257.533 53.0422 257.859 53.0952 257.859 53.0952C258.491 53.1726 259.261 52.8425 260.077 52.5246C261.446 51.9703 263.019 51.3589 264.503 52.333C264.503 52.333 265.074 52.6998 265.318 52.8669C265.061 53.1889 262.681 56.2458 262.681 56.2458C258.931 60.9738 255.084 65.8281 255.1 71.6362C255.1 72.7449 255.239 73.8942 255.573 75.0803C256.294 78.4877 259.787 80.0855 262.555 80.436C268.159 81.3857 275.178 78.2717 281.373 75.5368L284.511 74.151C286.264 73.666 286.769 74.7379 287.144 75.5124C287.572 76.4376 288.196 77.7419 290.902 78.9075C299.963 82.9875 313.25 80.9292 330.397 72.7856C330.397 72.7856 330.911 72.537 331.233 72.3862C331.355 72.6878 331.579 73.2869 331.579 73.2869C332.826 76.6128 335.162 78.6589 338.956 79.7431C353.748 81.675 365.918 73.1851 377.677 64.9804C377.693 64.9722 383.045 60.876 383.925 60.1994C384.141 60.4154 385.115 61.4548 385.242 61.6259C385.05 61.9112 380.078 68.938 380.078 68.938C378.341 71.4936 376.723 73.8861 375.708 76.5762C375.708 76.568 375.415 77.7133 375.415 77.7133L375.549 78.3002C375.81 78.7608 376.438 79.0747 377.363 79.2051C386.338 77.9416 394.959 70.5928 400.649 65.7466L402.352 64.2956C404.806 62.1476 407.141 60.1464 408.079 59.9385C408.079 59.9385 408.433 59.8326 408.613 59.7837C408.743 59.9385 409.024 60.2524 409.024 60.2524C409.057 60.285 409.057 60.3461 409.057 60.391C409.057 60.8352 408.405 61.8705 407.92 62.5919L407.031 64.0551C406.269 65.6529 404.753 68.8035 404.761 71.5873C404.761 72.6022 404.973 73.5926 405.527 74.4241C408.23 78.5692 410.573 78.6956 413.104 78.8383L414.005 78.8831C424.594 78.1739 434.959 68.9625 444.998 60.0364L452.481 53.5232C452.481 53.5232 458.517 48.2164 459.744 47.1159C459.911 47.495 460.168 48.2082 460.168 48.2082C460.93 50.1443 461.097 51.9091 461.097 53.0422L460.922 55.1494C460.808 56.0828 459.153 62.6082 456.875 64.4668C456.859 64.4668 456.394 64.7277 456.394 64.7277C456.378 64.7277 454.939 65.1026 454.939 65.1026C449.4 66.5333 443.135 68.1473 440.812 73.6782C440.8 73.7027 440.604 74.9336 440.604 74.9336C440.608 75.6795 440.893 76.7473 442.149 77.5788C446.062 78.5733 450.109 77.5951 453.667 76.727L458.265 75.7325C462.002 75.7447 465.654 76.1808 469.176 76.5884C474.079 77.159 478.693 77.7133 483.592 77.1998C489.922 75.5287 494.964 68.3144 496.513 62.3514L496.651 61.8705L496.178 62.1028C488.316 66.0197 479.231 66.2153 471.858 62.6286C471.858 62.6286 471.344 62.3718 471.112 62.2495C471.214 62.005 471.442 61.4344 471.442 61.4344C471.495 61.3203 475.95 50.3481 475.913 36.1397C475.909 35.4916 475.901 34.8354 475.876 34.1792H475.909C475.819 33.8327 475.775 33.5148 475.775 33.1969C475.766 31.8885 476.431 30.8166 477.03 29.8384C477.641 28.8683 478.155 28.0165 478.155 27.0098C478.155 26.8589 478.143 26.7122 478.135 26.5533C478.106 26.537 478.106 26.4962 478.106 26.4677C478.106 26.3495 478.143 26.1824 478.143 26.1824C478.155 26.166 478.155 26.1457 478.155 26.1212C478.151 25.7748 477.605 25.5954 477.332 25.5261C471.169 23.9814 467.688 28.5626 463.673 33.8816Z" fill="#E51636"/>
<path d="M204.789 67.0596L204.642 66.9659C202.295 65.2703 201.545 62.8901 202.519 60.0777C203.379 56.8048 212.423 46.7619 219.597 45.3435C226.106 44.0678 228.714 46.2606 229.966 47.304C229.966 47.3244 230.654 47.8542 230.98 48.1436C230.707 48.4371 227.467 51.9342 227.467 51.9342C222.698 58.7001 210.756 69.8149 204.789 67.0596ZM187.723 29.3132C190.434 25.9588 194.905 22.9916 196.246 22.3598C197.273 21.8707 197.823 22.4454 197.97 22.6329C198.198 22.906 198.272 23.285 198.28 23.6641C198.28 24.1043 198.145 24.5485 197.986 24.736L198.039 24.7442C195.675 33.0793 180.636 50.7807 171.978 56.9923C171.978 56.9923 170.935 57.726 170.32 58.1743C170.405 57.5099 170.58 56.1731 170.58 56.1731C171.298 50.2508 182.482 35.7816 187.723 29.3132ZM121.21 46.9902C126.826 44.2308 133.853 44.4102 139.103 47.4548C139.103 47.4548 139.702 47.7972 140.007 47.9806C139.767 48.3352 136.164 53.377 136.164 53.377C130.234 60.6198 118.772 67.8218 113.861 67.3857V67.3735C111.574 67.186 109.973 66.0651 109.573 64.3614L109.487 62.9186C109.471 58.0276 115.96 50.4465 119.363 48.1314C119.323 48.1477 121.21 46.9902 121.21 46.9902ZM204.985 11.1308H204.976C197.016 11.889 189.529 16.3479 180.701 25.5716C177.102 29.0075 160.436 49.8433 157.725 65.6616C157.725 65.6616 157.684 65.9673 157.656 66.0937C157.538 66.1507 157.277 66.2975 157.277 66.2975C154.852 67.6017 147.568 70.7524 142.95 69.603C141.564 69.2606 140.529 68.5433 139.901 67.4835C139.192 66.11 138.842 64.712 138.842 63.2284C138.83 59.7802 140.721 56.7029 142.363 53.9354C142.384 53.9232 143.244 52.4722 143.309 52.3744C143.337 52.3988 143.623 52.3132 143.623 52.3132C147.894 51.0742 154.575 42.9021 156.262 37.9132L156.311 37.7706L156.18 37.6891C151.192 34.6444 144.495 34.7382 139.771 35.3332C131.982 36.2625 123.133 39.7107 116.07 44.5569C107.576 50.3935 100.256 62.242 98.7395 69.656C97.9202 73.8908 97.3863 78.1867 100.313 80.1717C106.41 83.6891 118.357 77.237 126.508 69.3951C126.508 69.3951 127.568 68.3761 128.204 67.7648C128.147 68.6248 127.947 70.9562 127.947 70.9562C127.849 71.967 127.755 73.1245 127.76 74.2698C127.768 76.43 128.134 78.5984 129.561 79.9393C136.307 85.2665 150.16 79.3728 157.799 74.1231C157.799 74.1231 158.247 73.8093 158.483 73.6544C158.667 73.8785 159.001 74.3106 159.001 74.3106C161.446 77.3145 164.328 80.5466 167.593 81.0806C176.14 82.2544 182.82 77.3063 188.755 71.7999C188.755 71.7999 189.529 71.0825 189.912 70.7116C190.034 71.3434 190.499 73.4587 190.499 73.4587C190.943 75.6597 191.347 77.7384 193.055 79.1079C197.383 82.4378 207.035 77.8647 212.468 73.9886C212.468 73.9886 213.727 73.1041 214.445 72.5743C214.261 73.3365 213.85 74.9179 213.85 74.9179C212.928 78.5169 211.225 81.9691 209.558 85.3072L208.078 88.36L207.83 88.7595L207.393 89.4768C205.078 93.1981 200.799 100.16 196.613 100.783L196.323 100.824C195.247 100.441 194.559 99.8376 194.192 99.0306L193.878 97.4777C193.87 95.5947 194.848 93.4671 195.716 91.5718L195.891 91.2009L195.488 91.2294C193.54 91.531 191.811 92.3584 189.904 93.3448C186.04 95.6436 182.07 100.832 182.078 105.491C182.078 106.457 182.241 107.37 182.576 108.214C183.379 109.991 185.486 110.035 186.366 109.991C212.892 107.439 227.703 77.3063 238.508 55.2967L240.632 50.9478C241.292 50.0797 241.394 49.558 241.394 49.2523L241.374 48.9914C241.333 48.9547 240.966 48.4982 240.966 48.4982C240.999 48.5308 240.697 46.9209 240.697 46.9209C241.129 44.7933 246.265 40.3098 246.318 40.2569C246.318 40.2691 246.966 39.7678 246.966 39.7678C247.492 39.4254 247.822 39.0708 247.83 38.7896C247.83 38.4839 247.488 38.0804 246.962 37.7502C245.914 37.0777 244.785 36.6008 240.469 35.4148C232.493 33.2056 218.785 34.9175 206.387 46.9942C205.078 48.2455 202.686 51.2861 200.738 53.7275L198.227 56.8619C192.182 63.9498 185.959 71.3067 175.622 69.2851C174.273 68.7307 172.834 67.5936 172.28 66.2037C171.987 65.4008 172.003 64.5978 172.337 63.8764L172.468 63.6196C178.186 59.5845 184.055 54.3552 190.075 48.0132C200.2 37.1348 212.578 18.8587 210.931 14.3345C209.709 11.1798 206.085 11.0779 204.985 11.1308Z" fill="#E51636"/>
</svg>
