<svg width="132" height="132" viewBox="0 0 132 132" fill="none" xmlns="http://www.w3.org/2000/svg">
<circle id="pCirc" cx="66" cy="66" r="66" />
<path class="drawing" fill-rule="evenodd" clip-rule="evenodd" d="M69.1693 84.9994H75.5026C76.3425 84.9994 77.1479 85.333 77.7418 85.9268C78.3356 86.5207 78.6693 87.3262 78.6693 88.166C78.6693 89.0059 78.3356 89.8113 77.7418 90.4052C77.1479 90.9991 76.3425 91.3327 75.5026 91.3327H56.5026C55.6628 91.3327 54.8573 90.9991 54.2634 90.4052C53.6696 89.8113 53.3359 89.0059 53.3359 88.166C53.3359 87.3262 53.6696 86.5207 54.2634 85.9268C54.8573 85.333 55.6628 84.9994 56.5026 84.9994H62.8359V78.666H40.6693C38.9896 78.666 37.3787 77.9988 36.1909 76.811C35.0032 75.6233 34.3359 74.0124 34.3359 72.3327V46.9993C34.3359 45.3196 35.0032 43.7087 36.1909 42.521C37.3787 41.3333 38.9896 40.666 40.6693 40.666H91.3359C93.0156 40.666 94.6265 41.3333 95.8143 42.521C97.002 43.7087 97.6693 45.3196 97.6693 46.9993V72.3327C97.6693 74.0124 97.002 75.6233 95.8143 76.811C94.6265 77.9988 93.0156 78.666 91.3359 78.666H69.1693V84.9994ZM40.6693 46.9993V72.3327H91.3359V46.9993H40.6693Z" fill="white"/>
</svg>
