<svg width="132" height="132" viewBox="0 0 132 132" fill="none" xmlns="http://www.w3.org/2000/svg">
<circle id="pCirc" cx="66" cy="66" r="66" />
<path class="drawing" d="M49 40.5V49H40.5V40.5H49ZM36.25 36.25V53.25H53.25V36.25H36.25ZM70.25 46.875V55.375H61.75V46.875H70.25ZM57.5 42.625V59.625H74.5V42.625H57.5ZM49 66V74.5H40.5V66H49ZM36.25 61.75V78.75H53.25V61.75H36.25Z" fill="white"/>
<path class="drawing" d="M78.75 53.25V66H66V78.75H53.25V95.75H95.75V53.25H78.75ZM70.25 70.25H78.75V78.75H70.25V70.25ZM66 91.5H57.5V83H66V91.5ZM78.75 91.5H70.25V83H78.75V91.5ZM91.5 91.5H83V83H91.5V91.5ZM91.5 78.75H83V70.25H91.5V78.75ZM83 66V57.5H91.5V66H83Z" fill="white"/>
</svg>
