<svg width="98" height="16" viewBox="0 0 98 16" fill="none" xmlns="http://www.w3.org/2000/svg">
<g clip-path="url(#clip0_1289_1046)">
<path fill-rule="evenodd" clip-rule="evenodd" d="M51.6107 0C47.2224 0 43.6621 3.45956 43.6621 7.72933C43.6621 12.2688 47.0677 15.6622 51.6107 15.6622C56.0403 15.6622 59.5377 12.2239 59.5377 7.81844C59.5377 3.43917 56.0636 0 51.6107 0Z" fill="url(#paint0_linear_1289_1046)"/>
<path d="M4.68563 0.48533C9.4963 0.48533 12.8154 3.58044 12.8492 8C12.8492 10.1956 11.8145 12.3307 10.0794 13.7422C8.6163 14.944 6.97008 15.4844 4.65719 15.4844H0.330078V0.48533H4.68563ZM8.15941 11.7564V11.7547C9.16208 10.8533 9.77363 9.40977 9.77363 7.968C9.77363 6.52444 9.16208 5.14133 8.15941 4.24C7.18341 3.37066 6.02608 3.03644 4.10963 3.03644H3.31319V12.9298H4.10963C6.02608 12.9298 7.21363 12.5689 8.15941 11.7564ZM14.1896 0.48533H17.1407V15.4827H14.1896V0.48533ZM24.3905 6.256H24.3887C27.7683 7.45955 28.7425 8.54222 28.7425 10.9156C28.7425 13.8009 26.5807 15.8453 23.5372 15.8453C21.283 15.8453 19.6367 14.9422 18.2661 12.9902L20.1861 11.1556C20.8563 12.448 21.9834 13.1396 23.4163 13.1396C24.7247 13.1396 25.699 12.2684 25.699 11.0347C25.699 10.4036 25.3932 9.89333 24.8136 9.50222C24.5096 9.32088 23.9319 9.05244 22.7745 8.63111C20.003 7.66933 19.0287 6.61689 19.0287 4.54222C19.0287 2.07644 21.1016 0.24533 23.779 0.24533C25.4182 0.238922 27.0021 0.837786 28.227 1.92711L26.675 3.91111C25.9123 3.07022 25.1799 2.71111 24.2981 2.71111C23.0181 2.71111 22.0759 3.43111 22.0759 4.36089C22.0759 5.17155 22.6234 5.59644 24.3905 6.256ZM29.6883 7.99822L29.6865 7.99644C29.6865 3.63733 33.2812 0.152885 37.7559 0.152885C39.0359 0.152885 40.1025 0.423108 41.411 1.08444V4.51377C40.1612 3.34044 39.0963 2.83022 37.6972 2.83022C34.9274 2.83022 32.7336 5.11289 32.7336 7.96977C32.7336 11.0062 34.835 13.1396 37.8199 13.1396C39.1585 13.1396 40.2252 12.6596 41.4127 11.4862V14.9422C40.0421 15.5733 38.9772 15.8133 37.6972 15.8133C33.1905 15.8133 29.6883 12.3893 29.6883 7.99822ZM67.5852 10.5547L71.6652 0.48533H74.8634L68.3159 15.8453H66.7319L60.3052 0.48533H63.5354L67.5852 10.5547ZM76.2323 15.4827V0.48533H84.6092V3.03822H79.187V6.34489H84.3941V8.90311H79.187V12.928H84.6092V15.4827H76.2323ZM96.3319 4.93511C96.3319 7.21955 95.0839 8.72 92.8616 9.17155L97.6403 15.4827H94.019L89.907 9.44355H89.5105V15.4844H86.5559V0.48533H90.9399C94.3532 0.48533 96.3319 2.10844 96.3319 4.93511ZM90.3941 7.39733L90.3959 7.39555C92.2803 7.39555 93.2865 6.58666 93.2865 5.08444C93.2865 3.61244 92.2803 2.86044 90.4243 2.86044H89.5105V7.39733H90.3941Z" fill="#222222"/>
</g>
<defs>
<linearGradient id="paint0_linear_1289_1046" x1="46" y1="1.51968e-07" x2="57.3086" y2="14.1529" gradientUnits="userSpaceOnUse">
<stop stop-color="#F34F26"/>
<stop offset="1" stop-color="#F69E35"/>
</linearGradient>
<clipPath id="clip0_1289_1046">
<rect width="98" height="16" fill="white"/>
</clipPath>
</defs>
</svg>
