<svg width="180" height="30" viewBox="0 0 180 30" fill="none" xmlns="http://www.w3.org/2000/svg">
<path fill-rule="evenodd" clip-rule="evenodd" d="M94.8553 0C86.7381 0 80.1523 6.39933 80.1523 14.2974C80.1523 22.6942 86.4519 28.9713 94.8553 28.9713C103.049 28.9713 109.518 22.6113 109.518 14.4622C109.518 6.36162 103.092 0 94.8553 0Z" fill="white"/>
<path d="M8.05671 0.897747C16.9553 0.897747 23.0948 6.62294 23.1573 14.798C23.1573 18.8593 21.2434 22.8087 18.0339 25.4197C15.3275 27.6427 12.2824 28.6424 8.00409 28.6424H0V0.897747H8.05671ZM14.4823 21.7465V21.7432C16.337 20.076 17.4683 17.4058 17.4683 14.7388C17.4683 12.0686 16.337 9.5102 14.4823 7.84296C12.677 6.2349 10.5362 5.61668 6.99125 5.61668H5.51802V23.9169H6.99125C10.5362 23.9169 12.7329 23.2494 14.4823 21.7465ZM25.6368 0.897747H31.0956V28.6391H25.6368V0.897747ZM44.5059 11.5721H44.5026C50.754 13.7983 52.556 15.801 52.556 20.1911C52.556 25.5283 48.5573 29.31 42.9274 29.31C38.7577 29.31 35.7126 27.6394 33.1772 24.0287L36.7287 20.635C37.9685 23.0257 40.0533 24.3049 42.7038 24.3049C45.1241 24.3049 46.9262 22.6936 46.9262 20.4114C46.9262 19.244 46.3606 18.3002 45.2886 17.5768C44.7262 17.2414 43.6575 16.7448 41.5167 15.9654C36.39 14.1864 34.5879 12.2396 34.5879 8.40199C34.5879 3.84091 38.4223 0.453806 43.3747 0.453806C46.4068 0.441953 49.3366 1.5497 51.6024 3.56468L48.7316 7.23459C47.3208 5.67916 45.966 5.01489 44.3349 5.01489C41.9672 5.01489 40.2243 6.34671 40.2243 8.06657C40.2243 9.56611 41.2372 10.352 44.5059 11.5721ZM54.3055 14.7947L54.3022 14.7915C54.3022 6.72817 60.9515 0.282806 69.2285 0.282806C71.5962 0.282806 73.5693 0.782651 75.9895 2.00596V8.34938C73.6778 6.179 71.708 5.23522 69.12 5.23522C63.9966 5.23522 59.9386 9.45759 59.9386 14.7421C59.9386 20.3588 63.8256 24.3049 69.3469 24.3049C71.8231 24.3049 73.7962 23.4171 75.9928 21.2467V27.6394C73.4574 28.8068 71.4877 29.2508 69.12 29.2508C60.7837 29.2508 54.3055 22.9172 54.3055 14.7947ZM124.405 19.5235L131.952 0.897747H137.868L125.757 29.31H122.827L110.939 0.897747H116.914L124.405 19.5235ZM140.4 28.6391V0.897747H155.896V5.61996H145.866V11.7365H155.498V16.4686H145.866V23.9136H155.896V28.6391H140.4ZM177.58 9.12874C177.58 13.3544 175.271 16.1299 171.161 16.9651L180 28.6391H173.301L165.695 17.4683H164.962V28.6424H159.496V0.897747H167.606C173.92 0.897747 177.58 3.9001 177.58 9.12874ZM166.596 13.6832L166.6 13.68C170.085 13.68 171.947 12.1837 171.947 9.40497C171.947 6.68213 170.085 5.29112 166.652 5.29112H164.962V13.6832H166.596Z" fill="white"/>
</svg>
