<svg width="165" height="48" viewBox="0 0 165 48" fill="none" xmlns="http://www.w3.org/2000/svg">
<path d="M84.819 5.21493C84.819 5.21493 70.3249 -2.78844 58.1136 1.03447C57.4811 1.11698 56.931 1.47452 56.6285 2.02458C55.9134 3.01469 55.2808 3.67476 55.5833 4.44484C55.8859 5.21492 57.8111 5.57246 59.4613 5.10491C59.4613 5.10491 60.2313 4.63736 59.2962 4.27982C58.8287 4.0873 58.3611 3.94979 57.8386 3.86728C57.8386 3.86728 57.316 3.70226 57.8386 3.50974C58.3611 3.31722 63.9167 1.69455 73.6253 4.49985C83.3338 7.30515 96.3152 15.5835 95.7102 23.7794C95.0776 31.9753 82.2612 31.9753 82.2612 31.9753C80.171 31.9478 78.1083 31.7003 76.0731 31.2602C76.0731 28.5649 76.0731 24.027 76.1831 21.2492C79.2909 21.4692 85.7816 22.0192 86.6067 23.5594C86.6067 23.5594 87.0192 23.9719 85.6716 24.632C84.6815 25.2096 83.8014 25.4021 84.6815 25.8696C84.6815 25.8696 85.9741 26.6397 86.6892 26.4472C87.4043 26.2272 89.522 25.5121 89.797 23.3394C90.0446 21.1666 87.4318 18.9664 83.6639 18.1688C80.7211 17.5913 79.1259 17.2887 76.4306 17.3437C76.4856 14.9235 76.2106 11.8706 75.7155 11.1006C75.0554 10.1105 74.3129 8.87282 73.7628 10.2205C73.1852 11.4581 72.7177 14.0434 72.5252 17.5913C68.3447 18.1688 63.7517 19.764 62.3766 21.4692C61.4415 22.4868 61.4415 24.0545 62.3766 25.0721C62.4866 25.2371 65.3744 29.7201 71.8101 32.8004C71.8651 33.983 72.0576 35.2757 72.5252 35.9907C73.5153 37.5309 75.303 36.5133 75.633 36.2383C75.853 36.0733 75.9906 35.5782 76.0456 34.4231C80.556 35.7157 85.3141 35.7982 89.8796 34.6706C98.488 32.3604 99.8356 27.0798 100.138 23.9444C100.523 20.8366 98.433 12.5582 84.819 5.21493ZM71.9201 29.9676C68.5923 28.785 65.6494 26.7773 63.3117 24.137C63.3117 24.137 62.3766 23.0919 63.7792 22.5418C65.0719 22.0192 67.7397 21.3042 72.4977 21.0841C72.4152 22.5418 72.2777 25.6496 71.9201 29.9676Z" fill="white"/>
<path d="M106.877 15.446C110.343 14.3734 113.725 11.1006 113.835 8.43277C113.945 5.73747 110.948 5.70997 110.948 5.70997H110.893C110.425 4.00479 107.29 4.16981 107.29 4.16981C100.882 4.52734 98.6813 8.87281 98.3787 10.0554C98.0212 11.3756 98.4062 12.7782 99.4239 13.7133C99.1488 14.2359 99.1488 14.841 99.3688 15.3635C99.4789 15.666 100.029 16.6562 100.661 16.6012C101.129 16.5461 101.432 16.2986 102.009 15.3085C103.164 15.8586 104.704 16.1061 106.877 15.446ZM109.93 7.8552C112.24 7.55267 111.333 9.72541 111.333 9.72541C109.462 13.2733 105.447 13.3283 103.247 12.8607C104.704 10.688 107.922 8.10273 109.93 7.8552ZM100.634 11.4031C100.386 10.9355 100.414 10.3305 101.102 9.28536C101.954 8.02022 103.357 7.25014 104.869 7.22264C103.219 8.37776 101.789 9.78042 100.634 11.4031Z" fill="white"/>
<path d="M105.281 27.1348C105.281 27.1348 105.226 21.8817 105.116 20.7816C105.116 20.0115 104.841 19.2689 104.346 18.6639C104.044 18.1963 103.576 17.5363 102.751 18.1963C101.926 18.8564 101.761 23.2019 101.568 26.6947C101.348 30.2151 101.513 32.3604 101.926 32.9929C102.339 33.6255 103.989 33.928 104.704 33.3505C105.419 32.7729 105.226 27.6849 105.226 27.6849V27.1073L105.281 27.1348Z" fill="white"/>
<path d="M122.774 19.1864C121.701 17.8938 115.513 17.9488 115.513 17.9488C113.23 18.0588 107.922 18.8839 107.207 21.1941C106.492 23.5044 107.042 24.302 107.042 24.302C107.674 25.4846 112.102 25.5396 113.34 25.6496C114.578 25.7596 117.768 26.2822 118.923 26.8873C120.051 27.5198 119.226 28.3724 119.226 28.3724C118.153 29.9126 112.157 30.0776 112.157 30.0776C112.157 30.0776 110.04 30.0226 109.462 29.6101C108.885 29.1975 108.747 28.785 109.352 28.0699C109.985 27.3548 111.58 28.1799 111.58 28.1799C112.487 28.785 113.533 29.1425 114.633 29.225C116.393 29.335 117.686 28.7025 117.741 28.0974C117.796 27.4923 116.255 26.8598 116.255 26.8598C111.057 25.2646 108.885 26.4472 108.885 26.4472C105.997 28.2074 108.059 30.6277 108.059 30.6277C112.597 35.7432 119.858 32.6904 120.738 32.0303C121.618 31.3702 121.921 30.5727 122.031 28.5649C122.141 26.5572 121.261 25.5671 121.261 25.5671C119.803 23.6694 115.595 23.5594 114.413 23.4494C113.23 23.3394 110.865 22.9818 110.232 22.8718C110.067 22.8718 109.93 22.7068 109.93 22.5418C109.93 22.4318 109.985 22.3493 110.067 22.2943C110.837 21.7167 116.503 21.4142 119.556 21.3042L121.261 21.1391C121.976 21.0841 122.581 20.5891 122.746 19.9015C122.856 19.709 122.856 19.434 122.774 19.1864Z" fill="white"/>
<path d="M131.932 16.2161C131.629 16.0511 131.272 16.1611 131.107 16.4636C131.079 16.4911 131.079 16.5461 131.052 16.5737C130.942 17.0412 130.942 17.5088 131.052 17.9763C131.905 21.0016 132.51 24.082 132.867 27.2173C132.867 27.2173 132.922 28.2074 132.757 28.2899C132.647 28.3449 132.537 28.3174 132.455 28.2349C132.29 28.1799 130.502 25.0446 130.502 25.0446L130.199 24.467C128.192 21.0566 127.064 19.929 127.064 19.929C126.761 19.6815 126.019 18.8839 125.056 19.874C124.066 20.8641 123.296 24.2195 122.939 27.2998C122.581 30.4076 122.719 32.1953 123.186 32.9654C123.599 33.6805 124.506 33.9555 125.221 33.543C125.304 33.488 125.386 33.433 125.441 33.378C126.266 32.7454 126.266 28.62 126.486 26.5297C126.706 24.4395 126.844 24.7695 126.844 24.7695C127.064 24.7695 127.917 26.7222 127.917 26.7222C127.917 26.7222 130.337 31.9753 131.877 32.8004C133.417 33.6255 134.82 32.3879 135.342 31.2602C135.865 30.1326 136.828 26.2547 135.7 21.9367C134.572 17.5913 131.932 16.2161 131.932 16.2161Z" fill="white"/>
<path d="M148.185 31.5627C148.405 30.8477 147.663 29.8576 147.003 29.665C146.425 29.5 141.53 30.2976 140.925 30.3801C140.292 30.4901 140.622 29.9676 140.622 29.9676L141.447 27.4923C141.447 27.4923 146.04 27.4373 146.7 27.3273C147.003 27.3273 147.278 27.1073 147.36 26.8047C147.415 26.3372 147.443 25.8696 147.415 25.4021C147.443 25.072 147.195 24.7695 146.838 24.742C146.81 24.742 146.81 24.742 146.783 24.742C145.38 24.632 144.005 24.6045 142.602 24.687L143.235 22.7343H143.537C145.71 22.7893 147.883 22.6243 150.028 22.2667C150.963 22.0467 150.496 21.1391 150.496 21.1391C149.368 18.7739 148.075 18.9114 148.075 18.9114C144.693 18.8014 141.282 19.1039 137.954 19.7915C137.322 20.039 137.377 20.5066 138.119 21.4417C138.669 22.0192 139.439 22.3768 140.237 22.4318L138.999 24.797C138.532 24.7695 138.092 24.907 137.707 25.1546C137.129 25.7321 137.817 27.5198 137.817 27.5198C137.817 27.5198 137.569 28.0424 137.239 28.8675C136.937 29.6925 136.112 31.0952 137.184 33.2404C138.257 35.4132 139.962 35.3032 139.962 35.3032C143.097 35.3857 147.883 32.6629 148.185 31.5627Z" fill="white"/>
<path d="M163.45 20.8091C162.625 20.149 161.442 20.094 160.562 20.6991C157.867 22.1017 154.484 26.2822 152.614 28.7025C152.366 26.9423 153.604 24.742 153.604 24.742L153.906 24.2195C155.392 21.7442 155.612 21.4967 155.914 20.8091C156.217 20.1215 156.382 18.7464 156.079 18.5814C155.777 18.4163 155.254 18.8839 155.254 18.8839C150.826 22.5968 150.083 26.8873 150.083 26.8873C149.616 29.115 149.973 30.7102 150.606 31.8378C148.076 37.0909 147.141 42.0964 147.141 44.0491C147.196 45.6993 148.131 47.1844 149.616 47.927C150.496 48.2846 150.661 47.2119 150.661 47.2119C151.349 42.894 152.614 38.6585 154.429 34.6706C158.857 35.8532 162.515 31.2052 163.67 29.4725C164.495 28.0424 164.935 26.4197 164.963 24.7695C165.045 24.5495 164.99 21.9367 163.45 20.8091ZM160.315 29.3625C159.132 30.2426 157.757 30.7652 156.299 30.8477C157.702 28.3724 159.434 26.0897 161.415 24.0269C162.872 22.5418 162.955 23.9169 162.955 23.9169C163.202 26.6672 161.195 28.6474 160.315 29.3625Z" fill="white"/>
<path d="M6.21567 25.8421C4.73051 25.3746 3.32786 24.962 3.32786 24.0269V23.9719C3.32786 23.2569 3.98793 22.7343 5.14305 22.7343C6.18817 22.8168 7.20578 23.0918 8.14088 23.6144C8.69094 23.9444 9.40602 23.7519 9.73605 23.1743C9.84606 22.9818 9.90107 22.7893 9.90107 22.5693C9.87357 22.1017 9.59854 21.6617 9.18599 21.4417C7.94836 20.7816 6.57321 20.424 5.17056 20.3965C2.64029 20.3965 0.632568 21.8817 0.632568 24.3295V24.3845C0.632568 26.8047 2.7503 27.6298 4.648 28.1524C6.13316 28.6199 7.48081 28.9775 7.48081 29.9676V30.0226C7.48081 30.8477 6.76573 31.4252 5.47309 31.4252C4.15295 31.3977 2.88781 30.9577 1.8152 30.1876C1.62268 30.0776 1.40265 30.0226 1.18263 30.0226C0.550059 30.0226 0 30.5176 0 31.1777C0 31.2052 0 31.2052 0 31.2327C0 31.6453 0.220024 32.0303 0.577562 32.2778C2.00772 33.2679 3.6854 33.818 5.41808 33.818C8.11338 33.818 10.1761 32.4704 10.1761 29.8026V29.7476C10.1761 27.2998 8.05837 26.4197 6.21567 25.8421Z" fill="white"/>
<path d="M19.8839 20.3415C18.2337 20.314 16.721 21.1666 15.8684 22.5693V17.0412C15.8684 16.2161 15.2084 15.5835 14.4108 15.5835C13.6132 15.5835 12.9531 16.2436 12.9531 17.0412V32.0578C12.9531 32.8829 13.6132 33.5155 14.4108 33.5155C15.2084 33.5155 15.8684 32.8554 15.8684 32.0578V26.1722C15.8684 24.1645 17.0511 22.9818 18.7563 22.9818C20.4614 22.9818 21.479 24.1095 21.479 26.1172V32.0578C21.479 32.8554 22.1391 33.5155 22.9367 33.5155H22.9642C23.7343 33.543 24.3944 32.9104 24.4219 32.1403C24.4219 32.1128 24.4219 32.0853 24.4219 32.0578V25.2096C24.4219 22.2943 22.7717 20.3415 19.8839 20.3415Z" fill="white"/>
<path d="M33.8561 20.3416C30.1431 20.259 27.0903 23.1744 27.0078 26.8873C27.0078 26.9423 27.0078 26.9973 27.0078 27.0523V27.1073C27.1728 30.8752 30.3632 33.818 34.1311 33.653C37.7065 33.488 40.5393 30.6277 40.6768 27.0523V26.9973C40.6768 23.3394 37.734 20.3416 34.0486 20.3416C33.9661 20.3416 33.9111 20.3416 33.8561 20.3416ZM37.7065 27.0798C37.7065 29.3075 36.2213 31.0952 33.8285 31.0952C31.6558 31.0677 29.8956 29.3075 29.8956 27.1073C29.8956 27.0798 29.8956 27.0523 29.8956 27.0248V26.9698C29.8956 24.742 31.3808 22.8993 33.7735 22.8993C36.1663 22.8993 37.7065 24.7695 37.7065 27.0798Z" fill="white"/>
<path d="M50.7162 20.3416C48.6535 20.3416 47.3058 21.4142 46.3432 22.7618V21.9367C46.3432 21.1116 45.6831 20.4516 44.858 20.4516C44.0605 20.4516 43.4004 21.1116 43.4004 21.9092V21.9367V35.9632C43.4004 36.7883 44.0605 37.4209 44.858 37.4209C45.6556 37.4209 46.3157 36.7608 46.3157 35.9632V31.4252C47.3058 32.8829 48.956 33.7355 50.6887 33.708C53.7415 33.708 56.6293 31.2877 56.6293 27.0523V26.9973C56.6568 22.7068 53.714 20.3416 50.7162 20.3416ZM53.659 27.0248C53.659 29.555 52.0088 31.0952 50.0011 31.0952C47.9934 31.0952 46.2882 29.445 46.2882 27.0248V26.9698C46.2882 24.5495 48.0484 22.8993 50.0011 22.8993C51.9538 22.8993 53.659 24.522 53.659 27.0248Z" fill="white"/>
</svg>
