<svg width="652" height="652" viewBox="0 0 652 652" fill="none" xmlns="http://www.w3.org/2000/svg">
<path d="M333.5 260.2C333.5 260.2 280.8 231.1 236.4 245C234.1 245.3 232.1 246.6 231 248.6C228.4 252.2 226.1 254.6 227.2 257.4C228.3 260.2 235.3 261.5 241.3 259.8C241.3 259.8 244.1 258.1 240.7 256.8C239 256.1 237.3 255.6 235.4 255.3C235.4 255.3 233.5 254.7 235.4 254C237.3 253.3 257.5 247.4 292.8 257.6C328.1 267.8 375.3 297.9 373.1 327.7C370.8 357.5 324.2 357.5 324.2 357.5C316.6 357.4 309.1 356.5 301.7 354.9C301.7 345.1 301.7 328.6 302.1 318.5C313.4 319.3 337 321.3 340 326.9C340 326.9 341.5 328.4 336.6 330.8C333 332.9 329.8 333.6 333 335.3C333 335.3 337.7 338.1 340.3 337.4C342.9 336.6 350.6 334 351.6 326.1C352.5 318.2 343 310.2 329.3 307.3C318.6 305.2 312.8 304.1 303 304.3C303.2 295.5 302.2 284.4 300.4 281.6C298 278 295.3 273.5 293.3 278.4C291.2 282.9 289.5 292.3 288.8 305.2C273.6 307.3 256.9 313.1 251.9 319.3C248.5 323 248.5 328.7 251.9 332.4C252.3 333 262.8 349.3 286.2 360.5C286.4 364.8 287.1 369.5 288.8 372.1C292.4 377.7 298.9 374 300.1 373C300.9 372.4 301.4 370.6 301.6 366.4C318 371.1 335.3 371.4 351.9 367.3C383.2 358.9 388.1 339.7 389.2 328.3C390.6 317 383 286.9 333.5 260.2ZM286.6 350.2C274.5 345.9 263.8 338.6 255.3 329C255.3 329 251.9 325.2 257 323.2C261.7 321.3 271.4 318.7 288.7 317.9C288.4 323.2 287.9 334.5 286.6 350.2Z" fill="#002453"/>
<path d="M413.699 297.4C426.299 293.5 438.599 281.6 438.999 271.9C439.399 262.1 428.499 262 428.499 262H428.299C426.599 255.8 415.199 256.4 415.199 256.4C391.899 257.7 383.899 273.5 382.799 277.8C381.499 282.6 382.899 287.7 386.599 291.1C385.599 293 385.599 295.2 386.399 297.1C386.799 298.2 388.799 301.8 391.099 301.6C392.799 301.4 393.899 300.5 395.999 296.9C400.199 298.9 405.799 299.8 413.699 297.4ZM424.799 269.8C433.199 268.7 429.899 276.6 429.899 276.6C423.099 289.5 408.499 289.7 400.499 288C405.799 280.1 417.499 270.7 424.799 269.8ZM390.999 282.7C390.099 281 390.199 278.8 392.699 275C395.799 270.4 400.899 267.6 406.399 267.5C400.399 271.7 395.199 276.8 390.999 282.7Z" fill="#002453"/>
<path d="M407.9 339.9C407.9 339.9 407.7 320.8 407.3 316.8C407.3 314 406.3 311.3 404.5 309.1C403.4 307.4 401.7 305 398.7 307.4C395.7 309.8 395.1 325.6 394.4 338.3C393.6 351.1 394.2 358.9 395.7 361.2C397.2 363.5 403.2 364.6 405.8 362.5C408.4 360.4 407.7 341.9 407.7 341.9V339.8L407.9 339.9Z" fill="#002453"/>
<path d="M471.499 311C467.599 306.3 445.099 306.5 445.099 306.5C436.799 306.9 417.499 309.9 414.899 318.3C412.299 326.7 414.299 329.6 414.299 329.6C416.599 333.9 432.699 334.1 437.199 334.5C441.699 334.9 453.299 336.8 457.499 339C461.599 341.3 458.599 344.4 458.599 344.4C454.699 350 432.899 350.6 432.899 350.6C432.899 350.6 425.199 350.4 423.099 348.9C420.999 347.4 420.499 345.9 422.699 343.3C424.999 340.7 430.799 343.7 430.799 343.7C434.099 345.9 437.899 347.2 441.899 347.5C448.299 347.9 452.999 345.6 453.199 343.4C453.399 341.2 447.799 338.9 447.799 338.9C428.899 333.1 420.999 337.4 420.999 337.4C410.499 343.8 417.999 352.6 417.999 352.6C434.499 371.2 460.899 360.1 464.099 357.7C467.299 355.3 468.399 352.4 468.799 345.1C469.199 337.8 465.999 334.2 465.999 334.2C460.699 327.3 445.399 326.9 441.099 326.5C436.799 326.1 428.199 324.8 425.899 324.4C425.299 324.4 424.799 323.8 424.799 323.2C424.799 322.8 424.999 322.5 425.299 322.3C428.099 320.2 448.699 319.1 459.799 318.7L465.999 318.1C468.599 317.9 470.799 316.1 471.399 313.6C471.799 312.9 471.799 311.9 471.499 311Z" fill="#002453"/>
<path d="M504.801 300.2C503.701 299.6 502.401 300 501.801 301.1C501.701 301.2 501.701 301.4 501.601 301.5C501.201 303.2 501.201 304.9 501.601 306.6C504.701 317.6 506.901 328.8 508.201 340.2C508.201 340.2 508.401 343.8 507.801 344.1C507.401 344.3 507.001 344.2 506.701 343.9C506.101 343.7 499.601 332.3 499.601 332.3L498.501 330.2C491.201 317.8 487.101 313.7 487.101 313.7C486.001 312.8 483.301 309.9 479.801 313.5C476.201 317.1 473.401 329.3 472.101 340.5C470.801 351.8 471.301 358.3 473.001 361.1C474.501 363.7 477.801 364.7 480.401 363.2C480.701 363 481.001 362.8 481.201 362.6C484.201 360.3 484.201 345.3 485.001 337.7C485.801 330.1 486.301 331.3 486.301 331.3C487.101 331.3 490.201 338.4 490.201 338.4C490.201 338.4 499.001 357.5 504.601 360.5C510.201 363.5 515.301 359 517.201 354.9C519.101 350.8 522.601 336.7 518.501 321C514.401 305.2 504.801 300.2 504.801 300.2Z" fill="#002453"/>
<path d="M563.9 356C564.7 353.4 562 349.8 559.6 349.1C557.5 348.5 539.7 351.4 537.5 351.7C535.2 352.1 536.4 350.2 536.4 350.2L539.4 341.2C539.4 341.2 556.1 341 558.5 340.6C559.6 340.6 560.6 339.8 560.9 338.7C561.1 337 561.2 335.3 561.1 333.6C561.2 332.4 560.3 331.3 559 331.2C558.9 331.2 558.9 331.2 558.8 331.2C553.7 330.8 548.7 330.7 543.6 331L545.9 323.9H547C554.9 324.1 562.8 323.5 570.6 322.2C574 321.4 572.3 318.1 572.3 318.1C568.2 309.5 563.5 310 563.5 310C551.2 309.6 538.8 310.7 526.7 313.2C524.4 314.1 524.6 315.8 527.3 319.2C529.3 321.3 532.1 322.6 535 322.8L530.5 331.4C528.8 331.3 527.2 331.8 525.8 332.7C523.7 334.8 526.2 341.3 526.2 341.3C526.2 341.3 525.3 343.2 524.1 346.2C523 349.2 520 354.3 523.9 362.1C527.8 370 534 369.6 534 369.6C545.4 369.9 562.8 360 563.9 356Z" fill="#002453"/>
<path d="M619.4 316.9C616.4 314.5 612.1 314.3 608.9 316.5C599.1 321.6 586.8 336.8 580 345.6C579.1 339.2 583.6 331.2 583.6 331.2L584.7 329.3C590.1 320.3 590.9 319.4 592 316.9C593.1 314.4 593.7 309.4 592.6 308.8C591.5 308.2 589.6 309.9 589.6 309.9C573.5 323.4 570.8 339 570.8 339C569.1 347.1 570.4 352.9 572.7 357C563.5 376.1 560.1 394.3 560.1 401.4C560.3 407.4 563.7 412.8 569.1 415.5C572.3 416.8 572.9 412.9 572.9 412.9C575.4 397.2 580 381.8 586.6 367.3C602.7 371.6 616 354.7 620.2 348.4C623.2 343.2 624.8 337.3 624.9 331.3C625.2 330.5 625 321 619.4 316.9ZM608 348C603.7 351.2 598.7 353.1 593.4 353.4C598.5 344.4 604.8 336.1 612 328.6C617.3 323.2 617.6 328.2 617.6 328.2C618.5 338.2 611.2 345.4 608 348Z" fill="#002453"/>
<path d="M47.6996 335.2C42.2996 333.5 37.1996 332 37.1996 328.6V328.4C37.1996 325.8 39.5996 323.9 43.7996 323.9C47.5996 324.2 51.2996 325.2 54.6996 327.1C56.6996 328.3 59.2996 327.6 60.4996 325.5C60.8996 324.8 61.0996 324.1 61.0996 323.3C60.9996 321.6 59.9996 320 58.4996 319.2C53.9996 316.8 48.9996 315.5 43.8996 315.4C34.6996 315.4 27.3996 320.8 27.3996 329.7V329.9C27.3996 338.7 35.0996 341.7 41.9996 343.6C47.3996 345.3 52.2996 346.6 52.2996 350.2V350.4C52.2996 353.4 49.6996 355.5 44.9996 355.5C40.1996 355.4 35.5996 353.8 31.6996 351C30.9996 350.6 30.1996 350.4 29.3996 350.4C27.0996 350.4 25.0996 352.2 25.0996 354.6C25.0996 354.7 25.0996 354.7 25.0996 354.8C25.0996 356.3 25.8996 357.7 27.1996 358.6C32.3996 362.2 38.4996 364.2 44.7996 364.2C54.5996 364.2 62.0996 359.3 62.0996 349.6V349.4C62.0996 340.5 54.3996 337.3 47.6996 335.2Z" fill="#002453"/>
<path d="M97.3992 315.2C91.3992 315.1 85.8992 318.2 82.7992 323.3V303.2C82.7992 300.2 80.3992 297.9 77.4992 297.9C74.5992 297.9 72.1992 300.3 72.1992 303.2V357.8C72.1992 360.8 74.5992 363.1 77.4992 363.1C80.3992 363.1 82.7992 360.7 82.7992 357.8V336.4C82.7992 329.1 87.0992 324.8 93.2992 324.8C99.4992 324.8 103.199 328.9 103.199 336.2V357.8C103.199 360.7 105.599 363.1 108.499 363.1H108.599C111.399 363.2 113.799 360.9 113.899 358.1C113.899 358 113.899 357.9 113.899 357.8V332.9C113.899 322.3 107.899 315.2 97.3992 315.2Z" fill="#002453"/>
<path d="M148.201 315.2C134.701 314.9 123.601 325.5 123.301 339C123.301 339.2 123.301 339.4 123.301 339.6V339.8C123.901 353.5 135.501 364.2 149.201 363.6C162.201 363 172.501 352.6 173.001 339.6V339.4C173.001 326.1 162.301 315.2 148.901 315.2C148.601 315.2 148.401 315.2 148.201 315.2ZM162.201 339.7C162.201 347.8 156.801 354.3 148.101 354.3C140.201 354.2 133.801 347.8 133.801 339.8C133.801 339.7 133.801 339.6 133.801 339.5V339.3C133.801 331.2 139.201 324.5 147.901 324.5C156.601 324.5 162.201 331.3 162.201 339.7Z" fill="#002453"/>
<path d="M209.5 315.2C202 315.2 197.1 319.1 193.6 324V321C193.6 318 191.2 315.6 188.2 315.6C185.3 315.6 182.9 318 182.9 320.9V321V372C182.9 375 185.3 377.3 188.2 377.3C191.1 377.3 193.5 374.9 193.5 372V355.5C197.1 360.8 203.1 363.9 209.4 363.8C220.5 363.8 231 355 231 339.6V339.4C231.1 323.8 220.4 315.2 209.5 315.2ZM220.2 339.5C220.2 348.7 214.2 354.3 206.9 354.3C199.6 354.3 193.4 348.3 193.4 339.5V339.3C193.4 330.5 199.8 324.5 206.9 324.5C214 324.5 220.2 330.4 220.2 339.5Z" fill="#002453"/>
</svg>
