<svg width="131" height="23" viewBox="0 0 131 23" fill="none" xmlns="http://www.w3.org/2000/svg">
<path d="M26.292 0.438931H42.0057V5.04771H31.9981V8.99809H41.2156V13.6508H31.9981V17.9523H42.0057V22.5611H26.292V0.438931ZM61.5821 15.3626C61.5821 17.1183 60.6164 18.084 57.8072 18.084C54.9981 18.084 54.0763 17.1183 54.0763 15.3626V0.438931H48.3702V16.021C48.3702 19.4885 50.4771 23 57.8072 23C65.1813 23 67.2882 19.5324 67.2882 16.021V0.438931H61.5821V15.3626ZM100.34 22.5611H106.046V0.438931H100.34V22.5611ZM125.49 11.6317V17.8645C124.481 18.0401 123.34 18.1718 122.067 18.1718C119.126 18.1718 118.599 17.1622 118.599 15.2748V7.6374C118.599 5.57443 119.565 4.91603 122.023 4.91603C124.349 4.91603 126.895 5.17939 129.66 5.57443L130.187 0.790078C127.378 0.219467 124.744 0.0438941 122.198 0.0438941C115.702 0.0438941 112.981 2.23855 112.981 6.93512V16.1088C112.981 20.542 115.439 23 122.067 23C125.008 23 128.168 22.605 130.845 21.8588V11.6317H125.49ZM89.937 15.1431L94.4141 22.5611H88.0057L84.4504 16.2843H80.105V22.5611H74.3988V0.438931H84.8454C90.8149 0.438931 92.7023 2.76527 92.7023 6.80343V9.91985C92.7462 12.4218 92.0439 13.8702 89.937 15.1431ZM87.2156 7.06679C87.2156 5.61832 86.5134 5.00382 84.8454 5.00382H80.105V11.8073H84.7137C86.5572 11.8073 87.2156 11.1489 87.2156 9.65649V7.06679ZM3.51145 15.8893C1.58015 15.8893 0 17.4695 0 19.4447C0 21.4198 1.58015 23 3.51145 23C5.44275 23 7.0229 21.4198 7.0229 19.4447C7.0229 17.4695 5.44275 15.8893 3.51145 15.8893ZM3.51145 7.94466C1.58015 7.94466 0 9.52481 0 11.5C0 13.4752 1.58015 15.0553 3.51145 15.0553C5.44275 15.0553 7.0229 13.4752 7.0229 11.5C7.0229 9.52481 5.44275 7.94466 3.51145 7.94466ZM3.51145 0C1.58015 0 0 1.58015 0 3.55534C0 5.53054 1.58015 7.11069 3.51145 7.11069C5.44275 7.11069 7.0229 5.53054 7.0229 3.55534C7.0229 1.58015 5.44275 0 3.51145 0ZM20.8931 0.438931H14.4847L7.98855 11.5L14.4847 22.5611H20.8931L14.2214 11.5L20.8931 0.438931Z" fill="white"/>
</svg>
