<svg width="416" height="123" viewBox="0 0 416 123" fill="none" xmlns="http://www.w3.org/2000/svg">
<path d="M84.6243 1.49023H134.27V16.051H102.652V28.5317H131.773V43.2311H102.652V56.8212H134.27V71.3819H84.6243V1.49023ZM196.118 48.6394C196.118 54.1863 193.067 57.2372 184.192 57.2372C175.317 57.2372 172.405 54.1863 172.405 48.6394V1.49023H154.377V50.7195C154.377 61.6747 161.034 72.7687 184.192 72.7687C207.489 72.7687 214.146 61.8134 214.146 50.7195V1.49023H196.118V48.6394ZM318.567 71.3819H336.595V1.49023H318.567V71.3819ZM398.028 36.8521V56.5438C394.838 57.0985 391.233 57.5145 387.211 57.5145C377.92 57.5145 376.256 54.325 376.256 48.362V24.2328C376.256 17.7151 379.307 15.635 387.072 15.635C394.422 15.635 402.465 16.467 411.202 17.7151L412.866 2.59962C403.991 0.796859 395.67 0.242162 387.627 0.242162C367.103 0.242162 358.505 7.17586 358.505 22.014V50.9969C358.505 65.0029 366.271 72.7687 387.211 72.7687C396.502 72.7687 406.487 71.5206 414.946 69.1631V36.8521H398.028ZM285.702 47.946L299.846 71.3819H279.6L268.367 51.5515H254.639V71.3819H236.611V1.49023H269.615C288.475 1.49023 294.438 8.83995 294.438 21.598V31.4438C294.577 39.3482 292.358 43.9245 285.702 47.946ZM277.104 22.43C277.104 17.8538 274.885 15.9123 269.615 15.9123H254.639V37.4068H269.199C275.024 37.4068 277.104 35.3267 277.104 30.6118V22.43ZM12.6525 50.3035C6.55086 50.3035 1.55859 55.2957 1.55859 61.5361C1.55859 67.7764 6.55086 72.7687 12.6525 72.7687C18.7542 72.7687 23.7464 67.7764 23.7464 61.5361C23.7464 55.2957 18.7542 50.3035 12.6525 50.3035ZM12.6525 25.2035C6.55086 25.2035 1.55859 30.1958 1.55859 36.4361C1.55859 42.6764 6.55086 47.6687 12.6525 47.6687C18.7542 47.6687 23.7464 42.6764 23.7464 36.4361C23.7464 30.1958 18.7542 25.2035 12.6525 25.2035ZM12.6525 0.103485C6.55086 0.103485 1.55859 5.09575 1.55859 11.3361C1.55859 17.5764 6.55086 22.5687 12.6525 22.5687C18.7542 22.5687 23.7464 17.5764 23.7464 11.3361C23.7464 5.09575 18.7542 0.103485 12.6525 0.103485ZM67.5674 1.49023H47.321L26.7973 36.4361L47.321 71.3819H67.5674L46.489 36.4361L67.5674 1.49023Z" fill="#222021"/>
</svg>
