<svg width="107" height="49" viewBox="0 0 107 49" fill="none" xmlns="http://www.w3.org/2000/svg">
<path d="M53.3113 0L25.7776 11.7174H8.60298V16.4975H0V48.6263H106.611V16.4975H98.0122V11.7174H80.8436L53.3113 0Z" fill="white"/>
<path d="M78.7356 20.2617L78.7344 25.4558L82.1167 25.4617L82.8216 20.2632L78.7356 20.2617Z" fill="#292929"/>
<path d="M97.0233 24.7624C97.2413 24.7624 97.4384 24.7462 97.4384 24.482C97.4384 24.2743 97.2443 24.2357 97.0651 24.2357H96.7127V24.7624H97.0233ZM96.7127 25.7149H96.4543V24.0176H97.1054C97.5071 24.0176 97.7072 24.166 97.7072 24.5013C97.7072 24.8054 97.5176 24.9375 97.2667 24.9686L97.752 25.7149H97.4623L97.0114 24.979H96.7127V25.7149ZM97.0263 26.0947C97.6968 26.0947 98.2254 25.574 98.2254 24.8633C98.2254 24.166 97.6968 23.6408 97.0263 23.6408C96.3468 23.6408 95.8182 24.166 95.8182 24.8633C95.8182 25.574 96.3468 26.0947 97.0263 26.0947ZM95.5195 24.8633C95.5195 24.0177 96.2094 23.3945 97.0263 23.3945C97.8342 23.3945 98.5256 24.0177 98.5256 24.8633C98.5256 25.7149 97.8342 26.341 97.0263 26.341C96.2094 26.341 95.5195 25.7149 95.5195 24.8633Z" fill="#292929"/>
<path d="M17.0055 37.9624V20.2617H12.1328V42.1774H24.5452V37.9624H17.0055Z" fill="#292929"/>
<path d="M66.0586 42.1777H77.6572V37.9568H70.9552V35.2063H77.6572V31.1427H70.9552V28.3773H77.6572V24.1387H66.0586V24.1594V42.1777Z" fill="#292929"/>
<path d="M35.6831 28.3783H31.3973V37.94H35.6831V28.3783ZM40.5647 39.8746C40.5647 41.1461 39.5269 42.1787 38.2456 42.1787H28.8332C27.5535 42.1787 26.5156 41.1461 26.5156 39.8746V26.4437C26.5156 25.1707 27.5535 24.1396 28.8332 24.1396H38.2456C39.5269 24.1396 40.5647 25.1707 40.5647 26.4437V39.8746Z" fill="#292929"/>
<path d="M58.391 24.1406V37.9632H55.4491V24.1406H51.1633V37.9632H48.2215V24.1406H43.3398V39.8741C43.3398 41.1471 44.3777 42.1796 45.659 42.1796H51.4291C52.4013 42.1796 53.3062 41.512 53.3062 40.5462C53.3062 41.512 54.2112 42.1796 55.1833 42.1796H60.955C62.2347 42.1796 63.2726 41.1471 63.2726 39.8741V24.1406H58.391Z" fill="#292929"/>
<path d="M94.7689 35.3609L94.7701 35.3621L94.7402 35.2998C94.7209 35.2612 94.7014 35.2241 94.6821 35.1856L94.6522 35.1263C93.8802 33.5878 92.1509 32.303 89.3674 31.1963L89.2688 31.1592C88.7178 30.9441 87.0408 30.2928 86.8541 29.2335C86.8033 28.9368 86.9244 28.471 87.2573 28.1876C87.6082 27.833 88.1458 27.6505 88.8551 27.6505C89.9901 27.6505 91.2803 28.1119 91.9493 28.3864C93.3575 28.9665 94.5925 29.4843 94.6044 29.4917L94.7269 29.5421V25.6046L94.6866 25.5794C94.6597 25.5615 91.9971 23.894 89.3077 23.5112C88.9986 23.4845 88.6924 23.4727 88.3983 23.4727C85.9223 23.4727 84.0467 24.3658 82.8252 26.1283C81.7993 27.5763 81.6858 29.8684 82.5579 31.579C83.6794 33.5122 85.4773 34.3192 87.217 35.1011C87.9338 35.4215 88.676 35.7568 89.3704 36.1663L89.3776 36.171C90.1631 36.6398 90.5633 37.3564 90.3975 37.9929C90.2258 38.6531 89.4657 39.0967 88.5055 39.0967C88.3741 39.0967 88.2412 39.0896 88.1112 39.0715L88.0649 39.0656C86.2177 38.8104 82.4724 37.4247 82.4351 37.4099L82.3156 37.3654V41.6826L82.3769 41.7034C82.4113 41.7153 86.037 42.9081 89.2551 42.9081C91.0113 42.9081 92.3385 42.5565 93.1957 41.8651C93.2166 41.8503 95.1833 40.2792 95.2699 37.6072C95.2938 36.8684 95.1258 36.1116 94.7689 35.3609Z" fill="#292929"/>
</svg>
