<svg width="107" height="49" viewBox="0 0 107 49" fill="none" xmlns="http://www.w3.org/2000/svg">
<path d="M53.3113 0L25.7776 11.7174H8.60298V16.4975H0V48.6263H106.611V16.4975H98.0122V11.7174H80.8436L53.3113 0Z" fill="#012269"/>
<path d="M78.7346 20.2627L78.7334 25.4568L82.1158 25.4627L82.8206 20.2642L78.7346 20.2627Z" fill="white"/>
<path d="M97.0233 24.7634C97.2413 24.7634 97.4384 24.7471 97.4384 24.483C97.4384 24.2753 97.2443 24.2367 97.0651 24.2367H96.7127V24.7634H97.0233ZM96.7127 25.7159H96.4543V24.0186H97.1054C97.5071 24.0186 97.7072 24.167 97.7072 24.5023C97.7072 24.8064 97.5176 24.9385 97.2667 24.9696L97.752 25.7159H97.4623L97.0114 24.98H96.7127V25.7159ZM97.0263 26.0956C97.6968 26.0956 98.2254 25.5749 98.2254 24.8643C98.2254 24.167 97.6968 23.6418 97.0263 23.6418C96.3468 23.6418 95.8182 24.167 95.8182 24.8643C95.8182 25.5749 96.3468 26.0956 97.0263 26.0956ZM95.5195 24.8643C95.5195 24.0186 96.2094 23.3955 97.0263 23.3955C97.8342 23.3955 98.5256 24.0186 98.5256 24.8643C98.5256 25.7159 97.8342 26.3419 97.0263 26.3419C96.2094 26.3419 95.5195 25.7159 95.5195 24.8643Z" fill="white"/>
<path d="M17.0065 37.9624V20.2617H12.1338V42.1774H24.5462V37.9624H17.0065Z" fill="white"/>
<path d="M66.0586 42.1777H77.6572V37.9568H70.9552V35.2063H77.6572V31.1427H70.9552V28.3773H77.6572V24.1387H66.0586V24.1594V42.1777Z" fill="white"/>
<path d="M35.6831 28.3783H31.3973V37.94H35.6831V28.3783ZM40.5647 39.8746C40.5647 41.1461 39.5269 42.1787 38.2456 42.1787H28.8332C27.5535 42.1787 26.5156 41.1461 26.5156 39.8746V26.4437C26.5156 25.1707 27.5535 24.1396 28.8332 24.1396H38.2456C39.5269 24.1396 40.5647 25.1707 40.5647 26.4437V39.8746Z" fill="white"/>
<path d="M58.391 24.1396V37.9623H55.4491V24.1396H51.1633V37.9623H48.2215V24.1396H43.3398V39.8732C43.3398 41.1461 44.3777 42.1787 45.659 42.1787H51.4291C52.4013 42.1787 53.3062 41.5111 53.3062 40.5452C53.3062 41.5111 54.2112 42.1787 55.1833 42.1787H60.955C62.2347 42.1787 63.2726 41.1461 63.2726 39.8732V24.1396H58.391Z" fill="white"/>
<path d="M94.7689 35.3619L94.7701 35.3631L94.7402 35.3008C94.7209 35.2622 94.7014 35.225 94.6821 35.1866L94.6522 35.1273C93.8802 33.5888 92.1509 32.304 89.3674 31.1972L89.2688 31.1602C88.7178 30.9451 87.0408 30.2938 86.8541 29.2345C86.8033 28.9378 86.9244 28.4719 87.2573 28.1886C87.6082 27.834 88.1458 27.6515 88.8551 27.6515C89.9901 27.6515 91.2803 28.1129 91.9493 28.3873C93.3575 28.9674 94.5925 29.4852 94.6044 29.4927L94.7269 29.5431V25.6056L94.6866 25.5803C94.6597 25.5625 91.9971 23.895 89.3077 23.5122C88.9986 23.4855 88.6924 23.4736 88.3983 23.4736C85.9223 23.4736 84.0467 24.3668 82.8252 26.1293C81.7993 27.5773 81.6858 29.8694 82.5579 31.58C83.6794 33.5131 85.4773 34.3202 87.217 35.1021C87.9338 35.4225 88.676 35.7578 89.3704 36.1673L89.3776 36.172C90.1631 36.6408 90.5633 37.3574 90.3975 37.9939C90.2258 38.6541 89.4657 39.0977 88.5055 39.0977C88.3741 39.0977 88.2412 39.0906 88.1112 39.0725L88.0649 39.0666C86.2177 38.8114 82.4724 37.4257 82.4351 37.4109L82.3156 37.3664V41.6836L82.3769 41.7044C82.4113 41.7163 86.037 42.9091 89.2551 42.9091C91.0113 42.9091 92.3385 42.5574 93.1957 41.8661C93.2166 41.8513 95.1833 40.2801 95.2699 37.6082C95.2938 36.8694 95.1258 36.1126 94.7689 35.3619Z" fill="white"/>
</svg>
