<svg width="132" height="132" viewBox="0 0 132 132" fill="none" xmlns="http://www.w3.org/2000/svg">
<g id="Group 43971" id="pCirc">
<circle  id="Ellipse 463" cx="66" cy="66" r="66"/>
<g id="Group" >
<path class="drawing" id="Vector" d="M38.4576 93.7959L58.5502 73.7033M83.8521 64.7684L77.8376 82.8119C77.7417 83.1011 77.5773 83.363 77.3586 83.5751C77.1398 83.7873 76.8731 83.9435 76.5811 84.0306L39.711 94.9893C39.3788 95.088 39.026 95.0936 38.6908 95.0057C38.3556 94.9177 38.051 94.7395 37.8101 94.4905C37.5692 94.2414 37.4012 93.931 37.3244 93.5931C37.2477 93.2552 37.265 92.9028 37.3747 92.5741L49.3468 56.6638C49.4327 56.406 49.5729 56.1696 49.7581 55.9708C49.9434 55.7719 50.1692 55.6153 50.4203 55.5114L67.4283 48.5087C67.774 48.3659 68.1544 48.3287 68.5213 48.4017C68.8882 48.4747 69.2252 48.6548 69.4899 48.9191L83.3943 62.8267C83.6437 63.0757 83.8187 63.3894 83.8996 63.7324C83.9804 64.0754 83.964 64.4342 83.8521 64.7684Z" stroke="white" stroke-width="4.73584" stroke-linecap="round" stroke-linejoin="round"/>
<path class="drawing" id="Vector_2" d="M84.2227 63.6565L93.1513 54.7247C94.3351 53.5406 95.0001 51.9348 95.0001 50.2604C95.0001 48.586 94.3351 46.9802 93.1513 45.7961L86.458 39.0965C85.8716 38.5098 85.1754 38.0445 84.4091 37.727C83.6429 37.4095 82.8216 37.2461 81.9921 37.2461C81.1627 37.2461 80.3414 37.4095 79.5751 37.727C78.8088 38.0445 78.1126 38.5098 77.5262 39.0965L68.5976 48.0282M65.2446 67.0032C64.8047 66.5635 64.2825 66.2147 63.7078 65.9768C63.1332 65.739 62.5172 65.6166 61.8953 65.6167C61.2733 65.6169 60.6575 65.7395 60.0829 65.9777C59.5083 66.2158 58.9863 66.5648 58.5466 67.0047C58.1069 67.4446 57.7581 67.9668 57.5203 68.5415C57.2824 69.1162 57.16 69.7321 57.1602 70.3541C57.1603 70.9761 57.283 71.5919 57.5211 72.1665C57.7593 72.7411 58.1083 73.2631 58.5482 73.7028C59.4366 74.5908 60.6414 75.0895 61.8975 75.0892C63.1536 75.0889 64.3582 74.5896 65.2462 73.7012C66.1342 72.8128 66.6329 71.608 66.6326 70.3519C66.6323 69.0957 66.1331 67.8912 65.2446 67.0032Z" stroke="white" stroke-width="4.73584" stroke-linecap="round" stroke-linejoin="round"/>
</g>
</g>
</svg>
