<svg width="52" height="52" viewBox="0 0 52 52" fill="none" xmlns="http://www.w3.org/2000/svg">
<path id="Subtract" fill-rule="evenodd" clip-rule="evenodd" d="M26 52C40.3594 52 52 40.3594 52 26C52 11.6406 40.3594 0 26 0C11.6406 0 0 11.6406 0 26C0 40.3594 11.6406 52 26 52ZM35.5548 17.5107C35.5548 16.533 34.7621 15.7404 33.7844 15.7404H18.7625C17.7847 15.7404 16.9921 16.533 16.9921 17.5107C16.9921 18.4885 17.7847 19.2811 18.7625 19.2811H29.5104L16.2588 32.5326C15.5675 33.224 15.5675 34.3449 16.2588 35.0363C16.9502 35.7277 18.0711 35.7277 18.7625 35.0363L32.014 21.7847V32.5326C32.0141 33.5104 32.8067 34.303 33.7844 34.303C34.7621 34.303 35.5548 33.5104 35.5548 32.5326V17.5107Z" fill="white"/>
</svg>
