<svg width="51" height="26" viewBox="0 0 51 26" xmlns="http://www.w3.org/2000/svg" xmlns:xlink="http://www.w3.org/1999/xlink" version="1.1">
<style>
    rect#container {
        fill: #F9F9F9;
    }
    circle#light {
        fill: #F6C34A; opacity: 100%;
    }
    circle#dark {
        fill: #4C6FB6; opacity: 0%;
    }
    path#sun{
        fill: #FFFFFF;
    }
    path#dark{
        fill: #989898;
    }

    rect#darkContainer{
        fill: #FF0000;
    }
    rect#lightContainer{
        fill: #00FF00;
    }

    @media (prefers-color-scheme: dark){
        rect#container{
            fill: #292929;
        }
        circle#light{
            opacity: 0%;
        }
        circle#dark {
            fill: #4C6FB6; opacity: 100%;
        }
        path#sun{
            fill: #989898;
        }
        path#dark{
            fill: "white";
        }
    }
</style>
<rect id="container" x="0" y="0" width="51" height="26" rx="13"/>
<circle id="light" cx="14" cy="13" r="11"/>
<circle id="dark" cx="37" cy="13" r="11"/>
<path id="sun" d="M13.4194 8.35484V7.58065C13.4194 7.42665 13.4805 7.27896 13.5894 7.17007C13.6983 7.06117 13.846 7 14 7C14.154 7 14.3017 7.06117 14.4106 7.17007C14.5195 7.27896 14.5806 7.42665 14.5806 7.58065V8.35484C14.5806 8.50884 14.5195 8.65652 14.4106 8.76542C14.3017 8.87431 14.154 8.93548 14 8.93548C13.846 8.93548 13.6983 8.87431 13.5894 8.76542C13.4805 8.65652 13.4194 8.50884 13.4194 8.35484ZM17.2903 13C17.2903 13.6508 17.0973 14.2869 16.7358 14.828C16.3743 15.3691 15.8604 15.7908 15.2592 16.0399C14.6579 16.2889 13.9963 16.3541 13.3581 16.2271C12.7198 16.1001 12.1336 15.7868 11.6734 15.3266C11.2132 14.8664 10.8999 14.2802 10.7729 13.6419C10.6459 13.0037 10.7111 12.3421 10.9601 11.7408C11.2092 11.1396 11.6309 10.6257 12.172 10.2642C12.7131 9.90265 13.3492 9.70968 14 9.70968C14.8724 9.71057 15.7088 10.0575 16.3256 10.6744C16.9425 11.2912 17.2894 12.1276 17.2903 13ZM16.129 13C16.9665 13.5806 14.8146 15.8501 14.5806 15.5C14.3467 15.1499 13.389 15.2902 13 15.129C12.611 14.9679 9.35484 11.7532 13.5846 10.9119C13.1717 10.994 12.7923 11.1968 12.4945 11.4945C12.1968 11.7923 11.994 12.1717 11.9119 12.5846C11.8297 12.9976 11.8719 13.4257 12.033 13.8147C12.1942 14.2038 12.4671 14.5363 12.8172 14.7702C13.1673 15.0042 13.5789 15.129 14 15.129C14.5645 15.1284 15.1056 14.9039 15.5047 14.5047C15.9039 14.1056 16.1284 13.5645 16.129 13ZM10.2989 10.1205C10.3529 10.1745 10.417 10.2173 10.4876 10.2466C10.5581 10.2758 10.6338 10.2908 10.7102 10.2908C10.7865 10.2908 10.8622 10.2758 10.9327 10.2466C11.0033 10.2173 11.0674 10.1745 11.1215 10.1205C11.1755 10.0665 11.2183 10.0024 11.2475 9.93178C11.2768 9.86121 11.2918 9.78558 11.2918 9.70919C11.2918 9.63281 11.2768 9.55717 11.2475 9.4866C11.2183 9.41604 11.1755 9.35191 11.1215 9.2979L10.5408 8.71726C10.4317 8.60818 10.2838 8.5469 10.1295 8.5469C9.97525 8.5469 9.82731 8.60818 9.71823 8.71726C9.60914 8.82634 9.54786 8.97428 9.54786 9.12855C9.54786 9.28281 9.60914 9.43076 9.71823 9.53984L10.2989 10.1205ZM10.2989 15.8785L9.71823 16.4592C9.66421 16.5132 9.62137 16.5773 9.59214 16.6479C9.56291 16.7185 9.54786 16.7941 9.54786 16.8705C9.54786 16.9469 9.56291 17.0225 9.59214 17.0931C9.62137 17.1636 9.66421 17.2278 9.71823 17.2818C9.82731 17.3909 9.97525 17.4521 10.1295 17.4521C10.2059 17.4521 10.2815 17.4371 10.3521 17.4079C10.4227 17.3786 10.4868 17.3358 10.5408 17.2818L11.1215 16.7011C11.2305 16.592 11.2918 16.4441 11.2918 16.2898C11.2918 16.1356 11.2305 15.9876 11.1215 15.8785C11.0124 15.7695 10.8644 15.7082 10.7102 15.7082C10.5559 15.7082 10.408 15.7695 10.2989 15.8785ZM17.2903 10.2903C17.3666 10.2904 17.4421 10.2754 17.5126 10.2463C17.5831 10.2171 17.6472 10.1744 17.7011 10.1205L18.2818 9.53984C18.3358 9.48583 18.3786 9.42171 18.4079 9.35114C18.4371 9.28057 18.4521 9.20493 18.4521 9.12855C18.4521 9.05216 18.4371 8.97653 18.4079 8.90596C18.3786 8.83539 18.3358 8.77127 18.2818 8.71726C18.2278 8.66325 18.1636 8.6204 18.0931 8.59117C18.0225 8.56194 17.9469 8.5469 17.8705 8.5469C17.7941 8.5469 17.7185 8.56194 17.6479 8.59117C17.5773 8.6204 17.5132 8.66325 17.4592 8.71726L16.8785 9.2979C16.7969 9.37912 16.7412 9.48279 16.7186 9.59574C16.696 9.70869 16.7075 9.82581 16.7516 9.93221C16.7958 10.0386 16.8705 10.1295 16.9665 10.1932C17.0624 10.257 17.1751 10.2908 17.2903 10.2903ZM17.7011 15.8795C17.592 15.7704 17.4441 15.7092 17.2898 15.7092C17.1356 15.7092 16.9876 15.7704 16.8785 15.8795C16.7695 15.9886 16.7082 16.1365 16.7082 16.2908C16.7082 16.4451 16.7695 16.593 16.8785 16.7021L17.4592 17.2827C17.5683 17.3918 17.7162 17.4531 17.8705 17.4531C18.0247 17.4531 18.1727 17.3918 18.2818 17.2827C18.3909 17.1737 18.4521 17.0257 18.4521 16.8715C18.4521 16.7172 18.3909 16.5692 18.2818 16.4602L17.7011 15.8795ZM9.93548 13C9.93548 12.846 9.87431 12.6983 9.76542 12.5894C9.65652 12.4805 9.50884 12.4194 9.35484 12.4194H8.58065C8.42665 12.4194 8.27896 12.4805 8.17007 12.5894C8.06117 12.6983 8 12.846 8 13C8 13.154 8.06117 13.3017 8.17007 13.4106C8.27896 13.5195 8.42665 13.5806 8.58065 13.5806H9.35484C9.50884 13.5806 9.65652 13.5195 9.76542 13.4106C9.87431 13.3017 9.93548 13.154 9.93548 13ZM14 17.0645C13.846 17.0645 13.6983 17.1257 13.5894 17.2346C13.4805 17.3435 13.4194 17.4912 13.4194 17.6452V18.4194C13.4194 18.5734 13.4805 18.721 13.5894 18.8299C13.6983 18.9388 13.846 19 14 19C14.154 19 14.3017 18.9388 14.4106 18.8299C14.5195 18.721 14.5806 18.5734 14.5806 18.4194V17.6452C14.5806 17.4912 14.5195 17.3435 14.4106 17.2346C14.3017 17.1257 14.154 17.0645 14 17.0645ZM19.4194 12.4194H18.6452C18.4912 12.4194 18.3435 12.4805 18.2346 12.5894C18.1257 12.6983 18.0645 12.846 18.0645 13C18.0645 13.154 18.1257 13.3017 18.2346 13.4106C18.3435 13.5195 18.4912 13.5806 18.6452 13.5806H19.4194C19.5734 13.5806 19.721 13.5195 19.8299 13.4106C19.9388 13.3017 20 13.154 20 13C20 12.846 19.9388 12.6983 19.8299 12.5894C19.721 12.4805 19.5734 12.4194 19.4194 12.4194Z"/>
<path id="moon" d="M37.6964 19C36.1856 19 34.7367 18.3998 33.6684 17.3316C32.6002 16.2633 32 14.8144 32 13.3036C32 10.9956 33.3259 8.92622 35.3788 8.03272C35.4511 8.00118 35.5313 7.99218 35.6089 8.00686C35.6864 8.02155 35.7577 8.05926 35.8135 8.11506C35.8694 8.17087 35.9071 8.2422 35.9217 8.31974C35.9364 8.39729 35.9274 8.47746 35.8959 8.54981C35.6602 9.09097 35.5357 9.78411 35.5357 10.5536C35.5357 13.2614 37.7386 15.4643 40.4464 15.4643C41.2159 15.4643 41.909 15.3398 42.4502 15.1041C42.5225 15.0726 42.6027 15.0636 42.6803 15.0783C42.7578 15.0929 42.8291 15.1306 42.8849 15.1865C42.9407 15.2423 42.9784 15.3136 42.9931 15.3911C43.0078 15.4687 42.9988 15.5489 42.9673 15.6212C42.0738 17.6741 40.0044 19 37.6964 19Z"/>

<!-- controls -->
    <rect id="darkContainer" x="0" y="0" width="51" height="26" rx="13" fill-opacity="100%">
        <animate id="dark-to-light-animation" dur="1.001s" 
            attributeName="width" values="51; 0" fill="freeze" begin="click" />
        <animate dur="1.001s" attributeName="width" values="0; 51" 
            begin="light-to-dark-animation.end" fill="freeze" />

        <animate dur="1.001s" id="dark-to-light-animation2"
            attributeName="height" values="26; 0" fill="freeze" begin="click" />
        <animate dur="1.001s" attributeName="height" values="0; 26" 
            begin="light-to-dark-animation2.end" fill="freeze" />

        <animate dur="1.001s" id="dark-to-light-animation3"
            attributeName="fill-opacity" values="100%; 0" fill="freeze" begin="click" />
        <animate dur="1.001s" attributeName="fill-opacity" values="0; 100%" 
            begin="light-to-dark-animation3.end" fill="freeze" />
    </rect>

    <rect id="lightContainer" x="0" y="0" width="51" height="26" rx="13" fill-opacity="100%">
        <animate id="light-to-dark-animation" dur="1.001s" attributeName="width" 
            values="51; 0" fill="freeze" begin="click" />
        <animate dur="1.001s" attributeName="width" values="0; 51" 
            begin="dark-to-light-animation.end" fill="freeze" />

        <animate id="light-to-dark-animation2" dur="1.001s" attributeName="height" 
            values="26; 0" fill="freeze" begin="click" />
        <animate dur="1.001s" attributeName="height" values="0; 26" 
            begin="dark-to-light-animation2.end" fill="freeze" />

        <animate id="light-to-dark-animation3" dur="1.001s" attributeName="fill-opacity" 
            values="100%; 0" fill="freeze" begin="click" />
        <animate dur="1.001s" attributeName="fill-opacity" values="0; 100%" 
            begin="dark-to-light-animation3.end" fill="freeze" />
    </rect>
</svg>
