<svg width="338" height="415" viewBox="0 0 338 415" fill="none" xmlns="http://www.w3.org/2000/svg">
<g clip-path="url(#clip0_1289_1003)">
<path d="M169 399.502C172.432 397.784 261.65 359.126 289.96 335.931C319.127 311.877 334.569 277.514 334.569 236.279V42.9879L331.995 42.1289C260.792 3.47066 172.432 6.04788 168.142 6.04788C164.711 6.04788 76.3504 3.47066 5.14738 42.1289L3.43164 42.9879V237.138C3.43164 278.373 18.8733 312.736 48.0408 336.79C76.3504 359.985 165.569 398.643 169 399.502Z" fill="#341B14"/>
<path d="M169 403.798C169 403.798 74.6345 362.562 45.467 339.367C14.5838 313.595 0 278.373 0 237.997V36.9744C74.6345 -3.40191 169 0.0343713 169 0.0343713C169 0.0343713 263.366 -3.40191 338 36.9744V237.138C338 277.514 323.416 312.736 292.533 338.508C263.365 362.562 169 403.798 169 403.798ZM13.7259 237.997C13.7259 275.796 27.4518 306.723 54.0457 328.2C78.066 347.958 149.269 379.744 169 388.334C188.731 379.744 260.792 347.099 283.954 328.2C310.548 306.723 324.274 274.937 324.274 237.997V40.4107C224.761 30.9609 106.376 36.1154 13.7259 122.022V237.997Z" fill="#FFB406"/>
<path d="M264.224 209.648C277.092 217.379 282.239 222.534 283.097 231.984C283.097 242.292 276.234 248.306 265.082 248.306C255.646 248.306 244.493 243.151 236.772 236.279V263.769C246.209 268.924 257.361 273.219 269.371 273.219C298.539 273.219 312.265 252.601 312.265 233.702C313.123 216.52 307.976 202.775 283.097 188.171C271.945 181.298 263.366 177.003 263.366 166.694C263.366 156.385 272.803 152.09 280.524 152.09C290.818 152.09 301.113 158.103 307.118 164.117V138.345C301.97 134.049 290.818 128.036 274.519 128.895C254.788 129.754 234.199 143.499 234.199 167.553C235.057 183.876 240.204 195.903 264.224 209.648ZM162.996 271.501C165.569 272.36 169.859 273.219 176.722 273.219C210.179 273.219 229.052 243.151 229.052 200.198C229.052 156.385 209.321 129.754 174.148 129.754C157.849 129.754 144.981 133.19 133.828 140.063V334.213H162.996V271.501ZM162.996 154.667C165.569 153.808 169.859 152.09 173.29 152.09C190.448 152.09 197.311 165.835 197.311 199.339C197.311 231.984 188.732 247.447 171.575 247.447C167.285 247.447 163.854 246.588 162.138 245.729V154.667H162.996ZM72.9197 273.219C90.9349 273.219 106.377 268.924 117.529 261.192V131.472H87.5034V244.011C84.072 246.588 79.7826 247.447 73.7776 247.447C60.0517 247.447 58.3359 234.561 58.3359 226.829V131.472H28.3105V225.111C28.3105 256.897 43.7522 273.219 72.9197 273.219ZM272.803 389.194V408.952H276.234V401.221H277.092L282.24 408.952H286.529C286.529 408.952 281.382 401.221 280.524 400.361C283.097 399.502 284.813 397.784 284.813 395.207C284.813 392.63 283.097 389.194 277.95 389.194H272.803ZM277.95 391.771C280.524 391.771 281.382 393.489 281.382 394.348C281.382 396.066 280.524 397.784 277.092 397.784H276.234V391.771H277.95Z" fill="#FFB406"/>
<path d="M291.675 398.643C291.675 405.516 285.67 411.529 278.807 411.529C271.944 411.529 265.939 405.516 265.939 398.643C265.939 391.771 271.944 385.757 278.807 385.757C286.528 385.757 291.675 391.771 291.675 398.643ZM278.807 382.321C270.229 382.321 262.508 389.194 262.508 398.643C262.508 407.234 269.371 414.966 278.807 414.966C287.386 414.966 295.107 408.093 295.107 398.643C295.107 390.053 287.386 382.321 278.807 382.321Z" fill="#FFB406"/>
</g>
<defs>
<clipPath id="clip0_1289_1003">
<rect width="338" height="415" fill="white"/>
</clipPath>
</defs>
</svg>
