<svg width="53" height="64" viewBox="0 0 53 64" fill="none" xmlns="http://www.w3.org/2000/svg">
<path d="M26.0624 62.2777C26.0624 62.2777 11.5098 55.9186 7.01171 52.3416C2.24904 48.3671 0 42.9354 0 36.7087V5.70794C11.5098 -0.518716 26.0624 0.0112117 26.0624 0.0112117C26.0624 0.0112117 40.615 -0.518716 52.1248 5.70794V36.5762C52.1248 42.8029 49.8758 48.2346 45.1131 52.2091C40.615 55.9186 26.0624 62.2777 26.0624 62.2777ZM2.11674 36.7087C2.11674 42.5379 4.23349 47.3073 8.33468 50.6193C12.039 53.6664 23.0196 58.5682 26.0624 59.8931C29.1052 58.5682 40.2181 53.5339 43.7901 50.6193C47.8913 47.3073 50.0081 42.4054 50.0081 36.7087V6.23786C34.6617 4.78056 16.4048 5.57545 2.11674 18.8237V36.7087Z" fill="white"/>
<path d="M40.7468 32.3368C42.7312 33.5292 43.525 34.324 43.6573 35.7813C43.6573 37.3711 42.5989 38.2985 40.8791 38.2985C39.4238 38.2985 37.7039 37.5036 36.5133 36.4438V40.6832C37.9685 41.4781 39.6884 42.1405 41.5405 42.1405C46.0386 42.1405 48.1554 38.9609 48.1554 36.0463C48.2877 33.3967 47.4939 31.277 43.6573 29.0248C41.9374 27.9649 40.6145 27.3025 40.6145 25.7127C40.6145 24.1229 42.0697 23.4605 43.2604 23.4605C44.8479 23.4605 46.4355 24.3879 47.3616 25.3153V21.3408C46.5678 20.6784 44.8479 19.751 42.3343 19.8835C39.2915 20.016 36.1164 22.1357 36.1164 25.8452C36.2487 28.3624 37.0425 30.2171 40.7468 32.3368ZM25.1358 41.8755C25.5327 42.008 26.1941 42.1405 27.2525 42.1405C32.4121 42.1405 35.3226 37.5036 35.3226 30.8795C35.3226 24.1229 32.2798 20.016 26.8556 20.016C24.342 20.016 22.3576 20.5459 20.6377 21.6058V51.5467H25.1358V41.8755ZM25.1358 23.858C25.5327 23.7255 26.1941 23.4605 26.7233 23.4605C29.3693 23.4605 30.4276 25.5802 30.4276 30.747C30.4276 35.7813 29.1047 38.166 26.4587 38.166C25.7973 38.166 25.2681 38.0335 25.0035 37.9011V23.858H25.1358ZM11.2446 42.1405C14.0229 42.1405 16.4042 41.4781 18.1241 40.2857V20.281H13.4937V37.6361C12.9645 38.0335 12.303 38.166 11.3769 38.166C9.2602 38.166 8.99561 36.1788 8.99561 34.9865V20.281H4.36523V34.7215C4.36523 39.6233 6.74657 42.1405 11.2446 42.1405ZM42.0697 60.0255V63.0726H42.5989V61.8803H42.7312L43.525 63.0726H44.1865C44.1865 63.0726 43.3927 61.8803 43.2604 61.7478C43.6573 61.6153 43.9219 61.3504 43.9219 60.9529C43.9219 60.5555 43.6573 60.0255 42.8635 60.0255H42.0697ZM42.8635 60.423C43.2604 60.423 43.3927 60.688 43.3927 60.8204C43.3927 61.0854 43.2604 61.3504 42.7312 61.3504H42.5989V60.423H42.8635Z" fill="white"/>
<path d="M44.9805 61.4828C44.9805 62.5427 44.0544 63.4701 42.9961 63.4701C41.9377 63.4701 41.0116 62.5427 41.0116 61.4828C41.0116 60.423 41.9377 59.4956 42.9961 59.4956C44.1867 59.4956 44.9805 60.423 44.9805 61.4828ZM42.9961 58.9657C41.6731 58.9657 40.4824 60.0255 40.4824 61.4828C40.4824 62.8077 41.5408 64 42.9961 64C44.319 64 45.5097 62.9401 45.5097 61.4828C45.5097 60.158 44.319 58.9657 42.9961 58.9657Z" fill="white"/>
</svg>
