<svg
    id="svg-arrow"
    width="14" 
    height="13" 
    viewBox="0 0 14 13"
    xmlns="http://www.w3.org/2000/svg">
    <style>
        svg#svg-arrow path#path1 {fill: white}
        @media (prefers-color-scheme: dark){
            svg#svg-arrow path#path1 { fill: #1e1d1d}
        }
    </style>
    <path 
        id="path1"
        fill-rule="evenodd" 
        clip-rule="evenodd" 
        d="M13.0912 7.2621C13.1922 7.0171 13.1922 6.7421 13.0912 6.4971C13.0402 6.3751 12.9672 6.2641 12.8752 6.1721L7.93919 1.2371C7.54919 0.846098 6.91619 0.846098 6.52519 1.2371C6.13419 1.6271 6.13419 2.2601 6.52519 2.6511L9.75419 5.8801H1.61719C1.06519 5.8801 0.617188 6.3271 0.617188 6.8801C0.617188 7.4321 1.06519 7.8801 1.61719 7.8801H9.75419L6.52519 11.1091C6.13419 11.4991 6.13419 12.1321 6.52519 12.5231C6.72019 12.7181 6.97619 12.8161 7.23219 12.8161C7.48819 12.8161 7.74419 12.7181 7.93919 12.5231L12.8752 7.5871C12.9672 7.4951 13.0402 7.3841 13.0912 7.2621Z" 
    />
</svg>
